<?xml version="1.0"?>
<svg xmlns="http://www.w3.org/2000/svg" viewBox="0 0 64 64" width="51" height="51">
<g id="export">
  <path d="M55,47V5a1,1,0,0,0-1-1H39V25a1,1,0,0,1-1.555.832L32,22.2l-5.445,3.63A1,1,0,0,1,25,25V4H10A1,1,0,0,0,9,5V47a1,1,0,0,0,1,1H26V46H22a1,1,0,0,1-.768-1.64l10-12a1.033,1.033,0,0,1,1.536,0l10,12A1,1,0,0,1,42,46H38v2H54A1,1,0,0,0,55,47Z"/>
  <path d="M36,60V45a1,1,0,0,1,1-1h2.865L32,34.562,24.135,44H27a1,1,0,0,1,1,1V60Z"/>
  <path d="M31.445,20.168a1,1,0,0,1,1.11,0L37,23.131V4H27V23.131Z"/>
</g>
</svg>
