<?xml version="1.0" encoding="iso-8859-1"?>
<!-- Generator: Adobe Illustrator 19.0.0, SVG Export Plug-In . SVG Version: 6.00 Build 0)  -->
<svg version="1.1" id="Capa_1" xmlns="http://www.w3.org/2000/svg" xmlns:xlink="http://www.w3.org/1999/xlink" x="0px" y="0px"
	 viewBox="0 0 480 480" style="enable-background:new 0 0 480 480;" xml:space="preserve">
<g>
	<path style="fill:#D45B5B;" d="M31.656,225.576c0.872-0.32,1.76-0.608,2.672-0.832C33.408,224.976,32.52,225.248,31.656,225.576z"
		/>
	<path style="fill:#D45B5B;" d="M40,272c-1.576,0-3.112-0.176-4.608-0.464C36.88,271.832,38.416,272,40,272z"/>
	<path style="fill:#D45B5B;" d="M35.712,224.432C37.104,224.176,38.528,224,40,224C38.528,224,37.104,224.176,35.712,224.432z"/>
	<path style="fill:#D45B5B;" d="M26.896,227.928c1.04-0.68,2.136-1.264,3.272-1.776C29.032,226.664,27.936,227.248,26.896,227.928z"
		/>
	<path style="fill:#D45B5B;" d="M32.296,270.624c-0.36-0.12-0.744-0.2-1.096-0.344C31.552,270.424,31.936,270.496,32.296,270.624z"
		/>
	<path style="fill:#D45B5B;" d="M27.464,268.384c-0.016-0.008-0.032-0.016-0.048-0.024
		C27.432,268.368,27.448,268.368,27.464,268.384z"/>
	<path style="fill:#D45B5B;" d="M164.584,268.36c-0.016,0.008-0.032,0.016-0.048,0.024
		C164.552,268.368,164.568,268.368,164.584,268.36z"/>
	<path style="fill:#D45B5B;" d="M152,224c1.472,0,2.896,0.176,4.288,0.432C154.896,224.176,153.472,224,152,224z"/>
	<path style="fill:#D45B5B;" d="M157.672,224.752c0.912,0.224,1.8,0.504,2.672,0.832
		C159.48,225.248,158.592,224.976,157.672,224.752z"/>
	<path style="fill:#D45B5B;" d="M156.608,271.536C155.112,271.824,153.576,272,152,272C153.584,272,155.12,271.832,156.608,271.536z
		"/>
	<path style="fill:#D45B5B;" d="M161.832,226.152c1.136,0.512,2.24,1.096,3.272,1.776
		C164.064,227.248,162.968,226.664,161.832,226.152z"/>
	<path style="fill:#D45B5B;" d="M160.8,270.28c-0.352,0.144-0.736,0.216-1.096,0.344C160.064,270.496,160.448,270.424,160.8,270.28z
		"/>
</g>
<g>
	<path style="fill:#E4D9B3;" d="M120,288v32h48v-54.232c-1.064,0.96-2.192,1.824-3.416,2.584c-0.016,0.008-0.032,0.016-0.048,0.024
		c-1.184,0.728-2.424,1.384-3.736,1.904c-0.352,0.144-0.736,0.216-1.096,0.344c-1.016,0.344-2.024,0.704-3.096,0.912
		C155.12,271.832,153.584,272,152,272c-13.256,0-24-10.744-24-24s10.744-24,24-24c1.472,0,2.896,0.176,4.288,0.432
		c0.472,0.088,0.928,0.2,1.384,0.312c0.912,0.224,1.8,0.504,2.672,0.832c0.504,0.184,1,0.36,1.488,0.576
		c1.136,0.52,2.24,1.096,3.272,1.776h0.008C156.408,197.944,128.792,176,96,176s-60.408,21.944-69.104,51.928h0.008
		c1.04-0.68,2.136-1.256,3.272-1.776c0.48-0.216,0.984-0.392,1.488-0.576c0.872-0.328,1.752-0.6,2.672-0.832
		c0.464-0.112,0.912-0.232,1.384-0.312C37.104,224.176,38.528,224,40,224c13.256,0,24,10.744,24,24c0,13.256-10.744,24-24,24
		c-1.584,0-3.12-0.168-4.608-0.464c-1.072-0.208-2.08-0.568-3.096-0.912c-0.36-0.128-0.744-0.2-1.096-0.344
		c-1.312-0.52-2.552-1.168-3.736-1.904c-0.016-0.008-0.032-0.016-0.048-0.024c-1.224-0.752-2.352-1.624-3.416-2.584V320h48v-32H120z
		"/>
	<path style="fill:#E4D9B3;" d="M78.872,448h34.264h61.736H184v-40c0-5.472-0.568-10.808-1.52-16H152c-8.84,0-16-7.16-16-16
		s7.16-16,16-16h17.704C154,335.936,126.88,320,96,320c-48.6,0-88,39.4-88,88v40h9.128H78.872z"/>
</g>
<g>
	<path style="fill:#D45B5B;" d="M27.416,268.36c0.016,0.008,0.032,0.016,0.048,0.024c1.184,0.736,2.432,1.376,3.736,1.904
		c0.352,0.144,0.736,0.216,1.096,0.344c1.008,0.352,2.024,0.696,3.096,0.912C36.888,271.824,38.424,272,40,272
		c13.256,0,24-10.744,24-24s-10.744-24-24-24c-1.472,0-2.896,0.176-4.288,0.432c-0.472,0.088-0.928,0.2-1.384,0.312
		c-0.912,0.224-1.8,0.504-2.672,0.832c-0.496,0.184-1,0.352-1.488,0.576c-1.136,0.512-2.24,1.096-3.272,1.776h-0.008l0,0
		C20.344,232.216,16,239.592,16,248c0,7.08,3.12,13.376,8,17.768l0,0C25.064,266.728,26.208,267.592,27.416,268.36z"/>
	<path style="fill:#D45B5B;" d="M34.328,224.752c0.456-0.112,0.92-0.232,1.384-0.312C35.24,224.52,34.784,224.632,34.328,224.752z"
		/>
	<path style="fill:#D45B5B;" d="M35.392,271.536c-1.064-0.216-2.08-0.56-3.096-0.912C33.312,270.968,34.32,271.328,35.392,271.536z"
		/>
	<path style="fill:#D45B5B;" d="M31.2,270.28c-1.304-0.528-2.552-1.16-3.736-1.904C28.648,269.112,29.888,269.76,31.2,270.28z"/>
	<path style="fill:#D45B5B;" d="M24,265.768L24,265.768c1.064,0.96,2.192,1.824,3.416,2.584
		C26.208,267.592,25.064,266.728,24,265.768z"/>
	<path style="fill:#D45B5B;" d="M30.168,226.152c0.48-0.216,0.984-0.384,1.488-0.576C31.152,225.76,30.656,225.936,30.168,226.152z"
		/>
	<path style="fill:#D45B5B;" d="M26.896,227.928L26.896,227.928L26.896,227.928z"/>
	<path style="fill:#D45B5B;" d="M165.104,227.928c-1.04-0.68-2.136-1.264-3.272-1.776c-0.48-0.216-0.984-0.384-1.488-0.576
		c-0.872-0.32-1.76-0.608-2.672-0.832c-0.456-0.112-0.92-0.232-1.384-0.312C154.896,224.176,153.472,224,152,224
		c-13.256,0-24,10.744-24,24c0,13.256,10.744,24,24,24c1.576,0,3.112-0.176,4.608-0.464c1.064-0.216,2.08-0.56,3.096-0.912
		c0.36-0.12,0.744-0.2,1.096-0.344c1.304-0.528,2.552-1.16,3.736-1.904c0.016-0.008,0.032-0.016,0.048-0.024
		c1.216-0.76,2.36-1.632,3.416-2.584l0,0c4.88-4.392,8-10.688,8-17.768C176,239.592,171.656,232.216,165.104,227.928
		L165.104,227.928L165.104,227.928z"/>
	<path style="fill:#D45B5B;" d="M164.536,268.384c-1.184,0.736-2.432,1.376-3.736,1.904
		C162.112,269.76,163.352,269.112,164.536,268.384z"/>
	<path style="fill:#D45B5B;" d="M159.704,270.624c-1.008,0.352-2.024,0.696-3.096,0.912
		C157.68,271.328,158.688,270.968,159.704,270.624z"/>
	<path style="fill:#D45B5B;" d="M165.104,227.928L165.104,227.928L165.104,227.928z"/>
	<path style="fill:#D45B5B;" d="M160.344,225.576c0.496,0.184,1,0.352,1.488,0.576C161.344,225.936,160.848,225.76,160.344,225.576z
		"/>
	<path style="fill:#D45B5B;" d="M164.584,268.36c1.224-0.76,2.352-1.624,3.416-2.584l0,0
		C166.936,266.728,165.792,267.592,164.584,268.36z"/>
	<path style="fill:#D45B5B;" d="M156.288,224.432c0.472,0.088,0.928,0.2,1.384,0.312C157.216,224.632,156.76,224.52,156.288,224.432
		z"/>
</g>
<polygon style="fill:#E4D9B3;" points="120,288 72,288 72,320 96,320 120,320 "/>
<circle style="fill:#D45B5B;" cx="96" cy="128" r="16"/>
<g>
	<path style="fill:#E4D9B3;" d="M48,472c14.896,0,27.296-10.224,30.872-24H17.128C20.704,461.776,33.104,472,48,472z"/>
	<path style="fill:#E4D9B3;" d="M144,472c14.896,0,27.296-10.224,30.872-24h-61.736C116.704,461.776,129.104,472,144,472z"/>
</g>
<path style="fill:#D45B5B;" d="M272,176h16l16,32l24-32h128c8.84,0,16-7.16,16-16V24c0-8.84-7.16-16-16-16H272
	c-8.84,0-16,7.16-16,16v32h-48c-8.84,0-16,7.16-16,16s7.16,16,16,16h48v32h-96c-8.84,0-16,7.16-16,16s7.16,16,16,16h96v8
	C256,168.84,263.16,176,272,176z M336,104h32H336z M448,40H280H448z M448,72H280H448z M320,104h-40H320z"/>
<g>
	<path style="fill:#B3D5E4;" d="M136,376c0,8.84,7.16,16,16,16h30.48H456c8.84,0,16-7.16,16-16s-7.16-16-16-16h-48H264h-94.296H152
		C143.16,360,136,367.16,136,376z"/>
	<polygon style="fill:#B3D5E4;" points="288,272 384,272 384,336 408,336 408,248 264,248 264,336 288,336 	"/>
	<path style="fill:#B3D5E4;" d="M432,336h-24h-24h-96h-24h-24c0,13.256,10.744,24,24,24h144C421.256,360,432,349.256,432,336z"/>
	<rect x="288" y="272" style="fill:#B3D5E4;" width="96" height="64"/>
</g>
<g>
	<path style="fill:#23374E;" d="M8,456h3.488c6.28,14.384,20.496,24,36.512,24s30.232-9.616,36.512-24h22.984
		c6.28,14.384,20.488,24,36.512,24s30.232-9.616,36.512-24H184c4.424,0,8-3.584,8-8v-40c0-2.648-0.144-5.304-0.384-8H456
		c13.232,0,24-10.768,24-24s-10.768-24-24-24h-20.448c2.752-4.728,4.448-10.144,4.448-16c0-4.416-3.576-8-8-8h-16v-80
		c0-4.416-3.576-8-8-8H264c-4.424,0-8,3.584-8,8v80h-16c-4.424,0-8,3.584-8,8c0,5.856,1.696,11.272,4.448,16h-62.744
		c-6.912-9.584-15.336-17.664-24.904-24H168c4.424,0,8-3.584,8-8v-51.056c4.92-5.624,8-12.896,8-20.944
		c0-10.072-4.768-18.96-12.064-24.824c-9.824-30.056-36.776-51.544-67.936-54.72v-17.928c9.288-3.312,16-12.112,16-22.528
		c0-13.232-10.768-24-24-24s-24,10.768-24,24c0,10.416,6.712,19.216,16,22.528v17.928c-31.168,3.176-58.12,24.664-67.936,54.72
		C12.768,229.04,8,237.928,8,248c0,8.04,3.08,15.312,8,20.944V320c0,4.416,3.576,8,8,8h19.048C17.136,345.208,0,374.632,0,408v40
		C0,452.416,3.576,456,8,456z M48,464c-6.952,0-13.36-3.032-17.784-8h35.56C61.36,460.968,54.952,464,48,464z M144,464
		c-6.952,0-13.36-3.032-17.784-8h35.56C157.36,460.968,150.952,464,144,464z M464,376c0,4.408-3.584,8-8,8H182.48H152
		c-4.416,0-8-3.592-8-8s3.584-8,8-8h17.704H264h144h48C460.416,368,464,371.592,464,376z M272,256h128v72h-8v-56
		c0-4.416-3.576-8-8-8h-96c-4.424,0-8,3.584-8,8v56h-8V256z M376,328h-80v-48h80V328z M250.152,344H264h24h96h24h13.848
		c-2.768,4.776-7.936,8-13.848,8H264C258.088,352,252.912,348.776,250.152,344z M80,312v-16h32v16H80z M162.648,259.832
		c-1.488,1.336-3.16,2.368-4.952,3.072c-0.128,0.048-0.256,0.072-0.384,0.12c-0.768,0.28-1.544,0.52-2.336,0.672
		C154.008,263.88,153.016,264,152,264c-8.824,0-16-7.176-16-16s7.176-16,16-16c1.4,0,2.784,0.24,4.128,0.608
		c0.288,0.08,0.56,0.168,0.84,0.264c1.304,0.432,2.584,0.984,3.76,1.752c0.016,0.008,0.032,0.016,0.048,0.024
		C165.12,237.512,168,242.416,168,248c0,4.648-2.024,8.8-5.2,11.728C162.752,259.768,162.696,259.784,162.648,259.832z M96,120
		c4.416,0,8,3.592,8,8s-3.584,8-8,8s-8-3.592-8-8S91.584,120,96,120z M37.024,263.696c-0.792-0.16-1.576-0.4-2.336-0.68
		c-0.128-0.048-0.256-0.072-0.384-0.12c-1.784-0.704-3.464-1.744-4.952-3.072c-0.048-0.04-0.104-0.064-0.152-0.104
		C26.024,256.8,24,252.648,24,248c0-5.584,2.88-10.488,7.224-13.352c0.016-0.008,0.032-0.008,0.048-0.024
		c1.176-0.768,2.456-1.32,3.76-1.752c0.28-0.088,0.552-0.184,0.84-0.264C37.216,232.24,38.6,232,40,232c8.824,0,16,7.176,16,16
		s-7.176,16-16,16C38.984,264,37.992,263.88,37.024,263.696z M32,278.968c0.288,0.072,0.584,0.104,0.872,0.168
		c0.504,0.112,1.008,0.208,1.512,0.296C36.232,279.768,38.104,280,40,280c17.648,0,32-14.352,32-32c0-2.192-0.224-4.336-0.648-6.4
		c-0.152-0.728-0.448-1.4-0.648-2.112c-0.36-1.304-0.68-2.624-1.2-3.856c-0.344-0.824-0.848-1.56-1.264-2.352
		c-0.536-1.032-1.016-2.096-1.664-3.056c-0.528-0.792-1.2-1.472-1.792-2.208c-0.68-0.848-1.304-1.736-2.072-2.512
		c-0.688-0.704-1.496-1.272-2.256-1.904c-0.8-0.672-1.552-1.408-2.424-2c-0.824-0.56-1.744-0.976-2.616-1.464
		c-0.92-0.512-1.792-1.08-2.76-1.504c-0.92-0.4-1.912-0.632-2.872-0.944c-1.024-0.328-2.008-0.728-3.072-0.96
		c-0.992-0.208-2.032-0.248-3.048-0.36c-1.016-0.12-1.992-0.344-3.032-0.36C51.888,196.616,72.936,184,96,184
		s44.112,12.616,55.376,32.008c-1.04,0.024-2.024,0.248-3.032,0.36c-1.016,0.12-2.064,0.152-3.048,0.36
		c-1.064,0.224-2.048,0.624-3.072,0.952c-0.96,0.312-1.96,0.544-2.88,0.944c-0.968,0.416-1.84,0.992-2.752,1.496
		c-0.88,0.488-1.8,0.904-2.624,1.472c-0.864,0.592-1.624,1.328-2.424,2c-0.752,0.632-1.568,1.208-2.264,1.904
		c-0.76,0.768-1.384,1.664-2.072,2.512c-0.6,0.736-1.264,1.416-1.792,2.208c-0.64,0.952-1.104,2-1.64,3.016
		c-0.424,0.8-0.928,1.552-1.28,2.392c-0.512,1.216-0.824,2.52-1.184,3.808c-0.2,0.728-0.512,1.408-0.664,2.16
		C120.224,243.664,120,245.808,120,248c0,17.648,14.352,32,32,32c1.896,0,3.768-0.232,5.608-0.568
		c0.512-0.088,1.016-0.184,1.512-0.296c0.288-0.064,0.584-0.096,0.872-0.168V312h-32v-24c0-4.416-3.576-8-8-8h-48
		c-4.424,0-8,3.584-8,8v24H32V278.968z M16,408c0-44.112,35.888-80,80-80c21.752,0,42.176,8.76,57.08,24H152
		c-13.232,0-24,10.768-24,24s10.768,24,24,24h23.56c0.296,2.72,0.44,5.368,0.44,8v32h-1.136h-61.736H78.864H17.136H16V408z"/>
	<path style="fill:#23374E;" d="M160,160h88c0,13.232,10.768,24,24,24h11.056l13.792,27.576c1.24,2.48,3.68,4.144,6.44,4.392
		c0.232,0.024,0.48,0.032,0.712,0.032c2.504,0,4.88-1.176,6.4-3.2L332,184h124c13.232,0,24-10.768,24-24V24
		c0-13.232-10.768-24-24-24H272c-13.232,0-24,10.768-24,24v24h-40c-13.232,0-24,10.768-24,24s10.768,24,24,24h40v16h-88
		c-13.232,0-24,10.768-24,24S146.768,160,160,160z M160,128h96c4.424,0,8-3.584,8-8V88c0-4.416-3.576-8-8-8h-48
		c-4.416,0-8-3.592-8-8s3.584-8,8-8h48c4.424,0,8-3.584,8-8V24c0-4.408,3.584-8,8-8h184c4.416,0,8,3.592,8,8v136
		c0,4.408-3.584,8-8,8H328c-2.512,0-4.888,1.184-6.4,3.2l-16.232,21.648l-10.208-20.424C293.8,169.712,291.032,168,288,168h-16
		c-4.416,0-8-3.592-8-8v-8c0-4.416-3.576-8-8-8h-96c-4.416,0-8-3.592-8-8S155.584,128,160,128z"/>
	<rect x="280" y="32" style="fill:#23374E;" width="168" height="16"/>
	<rect x="280" y="64" style="fill:#23374E;" width="168" height="16"/>
	<rect x="280" y="96" style="fill:#23374E;" width="40" height="16"/>
	<rect x="336" y="96" style="fill:#23374E;" width="32" height="16"/>
	<path style="fill:#23374E;" d="M90.944,87.336l15.544,3.776c1.072-4.4,2.504-8.776,4.272-13.016L96,71.928
		C93.904,76.936,92.208,82.12,90.944,87.336z"/>
	<path style="fill:#23374E;" d="M125.104,54.824l-12.16-10.4c-3.512,4.112-6.736,8.512-9.544,13.088l13.624,8.392
		C119.408,62.032,122.128,58.304,125.104,54.824z"/>
	<path style="fill:#23374E;" d="M145.88,37.04l-8.392-13.624c-4.584,2.824-8.992,6.032-13.088,9.544l10.408,12.16
		C138.272,42.144,142,39.424,145.88,37.04z"/>
	<path style="fill:#23374E;" d="M167.296,10.952c-5.248,1.28-10.432,2.984-15.4,5.056l6.168,14.768
		c4.192-1.76,8.576-3.2,13.024-4.288L167.296,10.952z"/>
</g>
<g>
</g>
<g>
</g>
<g>
</g>
<g>
</g>
<g>
</g>
<g>
</g>
<g>
</g>
<g>
</g>
<g>
</g>
<g>
</g>
<g>
</g>
<g>
</g>
<g>
</g>
<g>
</g>
<g>
</g>
</svg>
