<?xml version="1.0" standalone="no"?>
<!DOCTYPE svg PUBLIC "-//W3C//DTD SVG 20010904//EN"
 "http://www.w3.org/TR/2001/REC-SVG-20010904/DTD/svg10.dtd">
 <svg height="150" width="200" class="p-t-15">
    <circle cx="75" cy="50" r="60" stroke="#93729e" stroke-width="3" fill="white"></circle>
        <svg version="1.0" xmlns="http://www.w3.org/2000/svg" class="sidebar-svg-icon"
            width="150" height="80" viewBox="0 0 900.000000 771.000000"
            preserveAspectRatio="xMidYMid meet">
            <metadata>
            Created by potrace 1.10, written by Peter Selinger 2001-2011
            </metadata>
            <g transform="translate(0.000000,771.000000) scale(0.100000,-0.100000)"
            fill="#93729e" stroke="none">
            <path d="M5640 7650 c-8 -5 -28 -10 -44 -10 -44 0 -292 -77 -354 -109 -9 -5
            -64 -33 -122 -61 -58 -28 -118 -60 -135 -71 -16 -10 -37 -22 -45 -26 -54 -25
            -275 -206 -380 -312 -107 -107 -259 -291 -284 -341 -7 -16 -17 -33 -57 -95
            -24 -39 -109 -209 -134 -270 -7 -16 -20 -47 -29 -68 -9 -21 -16 -46 -16 -55 0
            -10 -4 -22 -9 -27 -10 -11 -37 -103 -51 -175 -5 -25 -14 -70 -20 -100 -38
            -184 -40 -207 -40 -418 0 -215 5 -270 46 -472 8 -41 20 -88 26 -105 6 -16 13
            -46 16 -65 2 -19 11 -44 18 -55 8 -11 14 -27 14 -37 0 -9 7 -34 16 -55 9 -21
            22 -51 29 -68 109 -262 258 -486 468 -702 l119 -122 -3 -417 -3 -417 25 -21
            c28 -23 113 -85 139 -101 9 -5 49 -35 90 -66 483 -362 727 -543 758 -563 20
            -14 54 -41 75 -60 21 -20 44 -36 52 -36 7 0 64 53 127 117 62 65 260 266 439
            448 180 181 405 410 500 507 96 97 316 320 489 495 174 175 343 352 375 393
            33 41 65 80 71 85 6 6 37 51 69 100 31 50 65 101 74 115 9 14 31 57 50 95 19
            39 38 77 42 85 5 8 12 22 15 30 3 8 19 46 35 84 16 38 29 76 29 85 0 9 4 21 9
            27 15 15 52 156 72 274 6 36 17 90 25 121 17 67 19 511 3 574 -5 22 -14 73
            -19 113 -5 40 -14 88 -19 105 -5 18 -17 61 -26 97 -17 63 -24 85 -60 180 -30
            79 -40 103 -96 213 -64 127 -60 122 -123 217 -77 117 -192 257 -291 355 -88
            87 -275 245 -290 245 -4 0 -24 13 -44 28 -20 16 -43 32 -51 35 -8 4 -28 16
            -45 27 -31 19 -217 113 -270 135 -99 42 -233 84 -368 114 -65 15 -330 15 -325
            0 3 -10 130 -54 288 -100 36 -10 88 -25 117 -34 28 -8 61 -15 72 -15 11 0 23
            -4 26 -10 3 -5 16 -10 28 -10 12 0 49 -14 82 -30 33 -16 65 -30 72 -30 12 0
            88 -33 113 -49 8 -6 62 -38 120 -72 58 -34 127 -78 153 -98 133 -99 346 -301
            392 -371 12 -19 34 -46 49 -59 14 -14 26 -29 26 -34 0 -5 20 -36 45 -69 25
            -33 45 -66 45 -73 0 -7 6 -18 14 -24 8 -6 33 -51 56 -99 23 -48 51 -104 61
            -125 32 -64 89 -218 89 -241 0 -12 4 -26 9 -31 5 -6 13 -35 19 -65 6 -30 18
            -91 27 -135 10 -46 19 -164 24 -280 6 -165 4 -224 -11 -340 -22 -174 -28 -207
            -38 -220 -4 -5 -10 -28 -13 -50 -21 -136 -146 -424 -261 -600 -101 -156 -172
            -241 -331 -401 -71 -72 -312 -317 -535 -543 -925 -940 -1106 -1120 -1133
            -1126 -19 -5 -36 -2 -55 11 -15 10 -34 23 -43 29 -9 5 -71 51 -138 100 -66 50
            -145 107 -173 128 -29 21 -58 44 -64 52 -6 8 -20 18 -32 22 -11 5 -35 21 -54
            36 -18 16 -110 85 -203 155 -94 70 -187 141 -208 157 -64 54 -67 74 -67 461
            l0 343 -34 65 c-19 36 -74 109 -122 163 -49 54 -92 103 -96 108 -4 6 -20 26
            -37 45 -16 19 -49 67 -75 105 -25 39 -59 88 -76 111 -16 23 -30 48 -30 57 0
            10 -9 26 -20 37 -11 11 -22 32 -26 47 -4 16 -13 35 -21 44 -17 20 -75 165
            -108 269 -76 242 -106 481 -94 745 6 150 35 374 50 389 5 6 9 24 9 41 0 17 4
            35 9 41 6 5 14 27 20 49 14 55 47 152 70 200 90 195 182 351 262 447 25 29 52
            64 61 78 19 30 219 232 274 276 22 18 53 43 69 56 127 105 392 246 550 295 28
            8 70 22 95 30 25 8 63 18 85 22 22 5 51 13 65 19 14 5 54 17 90 27 36 9 79 21
            95 27 17 6 49 17 73 25 23 9 42 19 42 24 0 12 -291 11 -310 -1z"/>
            <path d="M5860 7450 c-131 -15 -328 -58 -395 -86 -16 -7 -64 -25 -105 -40 -41
            -15 -82 -33 -90 -39 -8 -6 -44 -25 -80 -44 -132 -67 -166 -87 -225 -135 -33
            -26 -89 -71 -125 -99 -74 -60 -101 -86 -183 -182 -33 -38 -70 -80 -81 -92 -50
            -52 -127 -163 -185 -267 -56 -101 -150 -326 -173 -416 -59 -229 -67 -291 -69
            -510 -3 -199 17 -414 42 -461 4 -9 15 -51 24 -92 9 -42 27 -100 40 -129 14
            -29 25 -59 25 -66 0 -7 26 -65 58 -130 66 -134 194 -331 267 -412 114 -125
            225 -239 490 -506 154 -155 393 -396 530 -536 416 -421 425 -427 560 -324 60
            47 1097 1087 1301 1306 71 76 144 164 144 174 0 2 21 35 47 73 102 148 210
            387 242 533 4 19 15 49 24 66 15 28 24 91 47 314 16 159 -2 436 -40 600 -5 25
            -13 61 -16 80 -4 19 -10 40 -14 45 -5 6 -15 33 -23 60 -8 28 -22 67 -31 88 -9
            20 -14 37 -11 37 9 0 -93 188 -163 300 -136 217 -359 444 -578 588 -95 62
            -284 166 -284 156 0 -4 -11 1 -25 10 -13 9 -33 16 -43 16 -10 0 -22 4 -28 8
            -35 30 -205 76 -374 102 -90 14 -409 20 -500 10z m450 -110 c88 -10 169 -27
            225 -46 23 -8 48 -14 57 -14 10 0 32 -6 50 -14 18 -8 53 -22 78 -31 25 -10 59
            -23 75 -31 17 -7 37 -15 45 -18 8 -3 22 -10 30 -15 8 -5 22 -12 30 -15 8 -4
            29 -15 45 -25 17 -11 47 -29 68 -41 150 -82 417 -330 527 -489 14 -20 28 -37
            33 -39 4 -2 7 -8 7 -12 0 -5 13 -28 29 -52 16 -24 39 -61 50 -83 12 -22 26
            -47 31 -55 9 -14 52 -109 79 -173 31 -76 75 -229 98 -342 26 -128 26 -550 0
            -675 -21 -100 -44 -182 -63 -228 -8 -18 -14 -41 -14 -52 0 -10 -6 -31 -14 -47
            -8 -15 -42 -83 -75 -150 -72 -147 -149 -266 -243 -376 -39 -45 -343 -358 -677
            -695 -333 -338 -629 -638 -656 -668 -55 -59 -67 -64 -81 -34 -10 22 -91 105
            -798 820 -571 577 -630 643 -733 815 -29 48 -134 264 -148 305 -39 111 -73
            239 -85 328 -5 35 -14 80 -20 100 -13 48 -13 396 0 444 6 20 15 65 20 100 12
            86 35 192 45 208 4 7 11 26 16 44 13 53 70 194 98 247 5 8 22 39 37 68 83 150
            160 255 293 396 75 79 254 233 285 244 6 2 25 15 42 27 57 44 271 154 298 154
            7 0 19 7 26 15 7 8 22 15 34 15 11 0 34 7 50 15 15 8 35 15 44 15 8 0 38 6 66
            14 104 29 153 40 211 46 88 10 398 10 485 0z"/>
            <path d="M5895 6544 c-337 -70 -601 -270 -742 -564 -28 -60 -41 -95 -78 -220
            -30 -100 -27 -396 5 -497 34 -105 45 -133 76 -198 77 -156 167 -266 304 -370
            71 -55 97 -72 120 -81 8 -3 22 -10 30 -15 41 -25 150 -67 225 -86 96 -24 341
            -28 433 -8 114 26 190 52 252 87 8 4 26 13 39 18 95 41 243 172 339 300 50 66
            128 215 143 273 44 170 53 225 54 331 0 210 -53 394 -164 571 -52 81 -73 107
            -159 192 -58 57 -180 146 -220 160 -9 3 -23 11 -31 17 -25 20 -170 67 -277 90
            -88 20 -254 19 -349 0z m340 -109 c93 -21 229 -71 287 -105 109 -64 208 -145
            246 -202 9 -14 41 -61 70 -104 29 -43 56 -90 59 -104 3 -14 17 -47 30 -73 52
            -103 69 -342 38 -519 -36 -205 -180 -432 -355 -559 -74 -53 -220 -123 -300
            -144 -86 -23 -297 -31 -375 -15 -33 7 -78 15 -100 20 -53 9 -159 56 -246 108
            -53 31 -154 115 -184 152 -11 14 -27 32 -35 40 -22 22 -85 119 -104 160 -9 19
            -24 48 -33 64 -17 31 -25 57 -43 141 -6 28 -15 64 -21 81 -19 65 -3 321 27
            419 20 65 89 208 128 265 40 59 194 209 242 237 202 115 317 150 494 151 66 1
            140 -5 175 -13z"/>
            <path d="M2845 4384 c-88 -39 -144 -61 -190 -74 -16 -5 -48 -15 -70 -24 -22
            -8 -65 -24 -95 -36 -30 -12 -86 -32 -125 -45 -38 -13 -95 -33 -125 -45 -119
            -45 -136 -52 -168 -60 -18 -4 -38 -12 -45 -18 -7 -5 -23 -12 -37 -15 -27 -6
            -103 -32 -135 -47 -11 -5 -47 -18 -80 -29 -33 -11 -85 -30 -115 -42 -30 -11
            -65 -23 -78 -26 -24 -6 -62 -47 -62 -69 0 -7 -6 -28 -14 -46 -8 -18 -21 -51
            -29 -73 -35 -95 -50 -132 -63 -157 -8 -14 -14 -33 -14 -42 0 -15 -19 -65 -46
            -119 -8 -16 -14 -34 -14 -42 0 -7 -14 -46 -31 -86 -17 -41 -37 -91 -45 -111
            -8 -21 -21 -56 -29 -78 -8 -22 -22 -58 -30 -80 -40 -107 -48 -127 -61 -152 -8
            -14 -14 -33 -14 -42 0 -8 -6 -30 -14 -48 -8 -18 -21 -49 -30 -70 -9 -20 -16
            -41 -16 -46 0 -6 -6 -23 -14 -39 -26 -52 -46 -104 -46 -118 0 -7 -6 -26 -14
            -42 -8 -15 -22 -48 -31 -73 -9 -25 -23 -58 -31 -73 -8 -16 -14 -35 -14 -42 0
            -8 -6 -29 -14 -47 -8 -18 -22 -53 -31 -78 -9 -25 -23 -58 -30 -75 -8 -16 -30
            -75 -51 -130 -20 -55 -45 -122 -56 -150 -11 -27 -23 -61 -28 -75 -5 -14 -18
            -50 -30 -80 -12 -30 -26 -69 -31 -87 -5 -18 -14 -35 -19 -38 -6 -4 -10 -16
            -10 -29 0 -12 -7 -31 -15 -42 -8 -10 -15 -28 -15 -39 0 -12 -4 -25 -8 -30 -4
            -6 -18 -37 -31 -70 -12 -33 -29 -75 -37 -93 -8 -18 -14 -39 -14 -47 0 -7 -6
            -26 -14 -42 -8 -15 -22 -47 -30 -70 -9 -24 -22 -60 -30 -80 -22 -60 -48 -125
            -62 -160 -8 -17 -14 -37 -14 -45 0 -7 -7 -22 -15 -32 -8 -11 -15 -29 -15 -40
            0 -12 -7 -30 -15 -40 -8 -11 -15 -29 -15 -40 0 -12 -7 -30 -15 -40 -8 -11 -15
            -28 -15 -37 0 -10 -6 -30 -14 -46 -8 -15 -21 -46 -29 -68 -14 -39 -27 -73 -62
            -165 -9 -25 -23 -58 -31 -73 -8 -16 -14 -35 -14 -42 0 -7 -6 -26 -14 -42 -8
            -15 -20 -41 -27 -58 -7 -17 -15 -34 -17 -39 -5 -10 21 -6 118 19 36 9 86 20
            113 25 26 5 62 13 80 19 40 12 120 31 172 42 41 8 94 21 180 44 46 12 88 23
            220 55 28 7 68 16 90 21 22 4 60 13 85 20 58 15 129 33 205 52 33 8 80 20 105
            27 25 6 65 15 89 21 25 5 59 13 75 18 17 6 63 17 101 26 82 19 170 41 240 60
            65 18 137 34 205 46 30 6 59 14 65 20 9 9 24 77 44 204 5 33 14 76 20 95 6 19
            11 50 11 68 0 18 5 42 10 52 6 11 15 50 20 87 5 38 14 86 19 108 13 53 31 148
            41 210 11 72 30 162 45 220 7 28 16 68 20 91 6 40 6 41 -37 58 -143 60 -181
            77 -311 135 -37 17 -73 31 -80 31 -7 0 -17 4 -22 9 -6 5 -55 28 -110 51 -110
            46 -196 85 -237 106 -14 8 -31 14 -38 14 -6 0 -38 14 -72 30 -33 17 -64 30
            -69 30 -22 0 -72 48 -90 84 -36 75 -17 156 51 221 29 28 37 30 103 29 60 0 82
            -5 137 -33 36 -18 79 -38 95 -46 42 -18 142 -64 190 -85 150 -69 177 -80 189
            -80 7 0 19 -7 26 -15 7 -8 18 -15 25 -15 8 0 26 -6 42 -14 15 -8 60 -29 98
            -47 39 -17 77 -36 85 -40 72 -41 72 -41 86 -27 8 7 16 43 19 78 3 36 12 90 20
            120 7 30 21 100 30 155 9 55 23 125 31 156 8 30 14 68 14 84 0 15 6 51 14 79
            8 28 22 96 31 151 9 55 23 127 31 161 8 33 14 71 14 84 0 13 6 46 14 74 14 49
            30 128 46 231 16 101 32 181 46 229 8 26 14 60 14 75 0 14 6 55 14 91 15 66
            31 148 46 230 28 156 43 227 50 240 12 23 24 130 14 129 -5 0 -45 -16 -89 -35z
            m-76 -178 c14 -17 2 -153 -24 -271 -18 -83 -44 -212 -55 -275 -26 -152 -43
            -237 -51 -253 -6 -9 -8 -21 -5 -25 3 -5 0 -26 -5 -48 -11 -44 -17 -78 -48
            -244 -12 -63 -33 -169 -47 -235 -14 -66 -29 -147 -33 -180 -4 -33 -17 -100
            -29 -150 -11 -49 -26 -121 -33 -160 -6 -38 -18 -85 -25 -104 -13 -32 -16 -33
            -53 -28 -65 8 -311 111 -311 130 0 4 -9 7 -19 7 -10 0 -54 16 -97 36 -290 134
            -370 160 -453 148 -79 -12 -153 -65 -199 -144 -23 -39 -27 -56 -27 -125 0 -69
            4 -86 27 -125 55 -92 126 -138 372 -241 66 -28 149 -64 184 -80 34 -16 64 -29
            67 -29 3 0 49 -22 102 -48 54 -26 118 -54 143 -62 63 -19 129 -66 136 -96 4
            -14 4 -46 0 -72 -4 -26 -9 -65 -11 -87 -3 -21 -9 -53 -14 -70 -5 -16 -15 -61
            -21 -100 -6 -38 -18 -90 -25 -115 -8 -25 -21 -92 -29 -150 -21 -141 -40 -243
            -61 -313 -14 -49 -23 -62 -58 -84 -23 -15 -67 -32 -97 -39 -30 -7 -82 -20
            -115 -29 -33 -9 -78 -20 -100 -25 -22 -4 -67 -15 -100 -24 -33 -9 -118 -30
            -190 -47 -71 -17 -157 -38 -190 -46 -33 -8 -71 -16 -85 -18 -14 -1 -25 -3 -25
            -5 0 -1 -25 -8 -55 -15 -154 -37 -308 -76 -336 -85 -17 -6 -71 -19 -120 -31
            -102 -23 -125 -29 -249 -63 -106 -30 -143 -32 -152 -10 -6 17 34 142 73 232
            13 29 24 59 24 67 0 8 18 61 41 117 22 57 47 119 54 138 28 74 76 196 85 215
            5 11 14 38 21 60 6 22 18 49 25 60 8 11 14 28 14 37 0 10 5 28 12 41 24 46 28
            57 28 72 0 8 6 29 14 47 41 97 61 147 176 448 83 217 103 266 110 275 4 6 11
            26 15 45 4 19 13 46 21 60 7 14 25 61 40 105 35 106 114 308 125 319 5 6 9 20
            9 32 0 13 5 26 10 29 6 3 10 14 10 25 0 10 14 51 31 91 16 41 36 93 44 117 7
            24 18 48 23 55 6 7 15 28 20 47 20 66 42 125 61 160 11 19 26 58 34 85 9 28
            38 109 65 180 27 72 55 146 62 165 7 19 21 55 31 80 9 25 32 82 49 126 17 45
            41 91 53 102 39 35 158 87 292 126 22 6 49 16 60 22 11 6 40 16 65 23 25 7 56
            19 70 26 14 7 59 24 100 38 41 15 106 38 144 52 38 14 76 25 85 25 9 0 30 7
            46 16 42 22 216 82 241 83 12 1 27 -5 33 -13z"/>
            <path d="M3275 4398 c-3 -7 -9 -47 -14 -88 -12 -99 -29 -194 -47 -254 -8 -26
            -14 -62 -14 -78 0 -16 -6 -57 -14 -91 -17 -72 -42 -201 -66 -347 -6 -36 -18
            -88 -26 -116 -8 -28 -14 -64 -14 -81 0 -16 -4 -43 -10 -59 -5 -16 -14 -56 -19
            -89 -12 -84 -41 -233 -76 -390 -8 -38 -15 -82 -15 -96 0 -14 -5 -39 -10 -55
            -6 -16 -15 -58 -20 -94 -18 -125 -32 -195 -46 -235 -8 -23 -14 -50 -14 -62 0
            -12 -7 -38 -16 -57 -33 -67 -3 -79 66 -26 31 24 262 165 300 183 8 4 29 16 45
            27 17 11 39 24 50 30 11 6 34 19 50 30 17 11 37 23 45 27 8 3 33 18 55 32 55
            35 67 42 127 75 29 16 65 37 79 47 15 10 37 23 50 29 13 6 33 16 44 23 83 51
            103 63 120 75 11 6 31 17 45 23 14 6 39 21 57 35 17 13 35 24 38 24 4 0 44 22
            89 49 44 27 104 61 131 76 28 15 54 31 59 36 5 4 8 229 8 500 -1 508 -1 508
            -39 509 -7 0 -29 7 -50 16 -21 9 -53 23 -70 30 -18 8 -48 20 -65 28 -18 7 -69
            28 -113 46 -44 17 -93 38 -110 45 -16 7 -66 27 -110 45 -76 31 -100 41 -177
            74 -18 8 -71 30 -118 49 -47 20 -98 43 -115 51 -36 19 -64 20 -70 4z m167
            -167 c13 -6 88 -35 168 -67 80 -31 156 -62 170 -69 14 -7 50 -23 80 -35 30
            -12 78 -32 105 -45 28 -13 73 -31 102 -40 28 -9 57 -23 63 -31 7 -7 19 -14 26
            -14 8 0 23 -14 33 -31 18 -29 19 -57 21 -403 1 -404 -2 -430 -55 -458 -13 -7
            -67 -39 -119 -70 -52 -32 -97 -58 -101 -58 -3 0 -21 -11 -39 -25 -18 -14 -38
            -25 -43 -25 -6 0 -37 -17 -69 -38 -63 -41 -292 -177 -434 -257 -47 -27 -101
            -58 -120 -70 -70 -45 -167 -95 -183 -95 -24 0 -25 31 -8 145 18 119 82 467
            100 546 6 26 20 100 30 165 11 66 29 157 39 204 10 47 19 94 20 105 0 11 6 40
            12 65 5 25 14 68 19 95 19 112 53 271 63 291 5 11 8 24 7 30 -10 37 37 181 61
            188 25 6 28 6 52 -3z"/>
            <path d="M7508 3372 c-49 -53 -308 -319 -578 -591 -269 -272 -490 -495 -490
            -496 0 -2 7 -19 15 -38 8 -20 15 -49 15 -66 0 -16 6 -51 14 -77 15 -50 32
            -138 45 -229 10 -63 30 -168 43 -220 5 -22 13 -65 18 -96 4 -31 12 -79 18
            -105 28 -127 35 -163 42 -209 9 -60 27 -153 42 -215 10 -41 24 -119 48 -260 5
            -30 14 -73 19 -95 6 -22 11 -58 11 -80 0 -59 19 -89 60 -96 19 -4 67 -15 105
            -24 39 -9 95 -23 126 -30 31 -7 72 -17 90 -23 19 -5 70 -17 114 -27 44 -9 103
            -23 130 -30 136 -37 218 -57 300 -74 64 -13 137 -32 185 -47 25 -8 54 -14 66
            -14 11 0 40 -6 65 -14 24 -7 78 -21 119 -30 81 -18 166 -39 245 -61 28 -7 86
            -21 130 -30 44 -10 91 -21 105 -26 14 -5 50 -13 80 -18 30 -5 84 -17 120 -26
            131 -33 130 -33 107 13 -8 15 -21 42 -30 60 -9 19 -17 40 -17 47 0 7 -6 26
            -14 42 -8 15 -21 46 -29 68 -8 22 -23 60 -32 85 -9 25 -24 63 -32 85 -8 22
            -21 53 -29 68 -8 16 -14 36 -14 46 0 9 -7 26 -15 37 -8 10 -15 28 -15 40 0 11
            -7 29 -15 40 -8 10 -15 27 -15 37 0 11 -6 31 -14 45 -25 50 -46 103 -46 118 0
            9 -6 28 -14 42 -7 15 -28 65 -45 112 -18 47 -38 99 -46 115 -7 17 -15 39 -18
            50 -3 11 -15 45 -27 75 -12 30 -26 69 -31 87 -5 18 -14 35 -19 38 -6 4 -10 15
            -10 25 0 19 -18 66 -46 123 -8 16 -14 35 -14 44 0 8 -6 27 -14 41 -22 44 -46
            102 -46 113 0 6 -7 27 -16 47 -37 86 -42 99 -48 129 -4 18 -12 35 -17 38 -5 4
            -9 13 -9 22 0 8 -6 29 -14 46 -7 18 -21 52 -30 77 -10 25 -24 58 -32 73 -8 16
            -14 35 -14 42 0 14 -20 66 -46 118 -8 16 -14 35 -14 44 0 8 -6 27 -14 41 -24
            48 -46 102 -46 117 0 7 -6 26 -14 42 -13 26 -25 56 -62 156 -8 20 -21 56 -30
            80 -21 54 -42 112 -60 160 -8 20 -21 56 -30 80 -9 23 -23 60 -31 82 -8 22 -20
            51 -26 65 -24 58 -69 188 -76 222 -8 36 -27 68 -40 68 -3 0 -45 -44 -93 -98z
            m106 -216 c35 -85 56 -146 61 -180 2 -16 11 -36 19 -45 8 -9 20 -36 26 -61 7
            -25 21 -63 32 -85 20 -40 59 -141 104 -270 14 -38 31 -81 38 -95 8 -14 17 -39
            20 -57 4 -17 16 -48 27 -69 10 -21 19 -45 19 -52 0 -8 11 -40 24 -71 38 -89
            210 -529 227 -581 4 -14 22 -63 39 -110 18 -47 47 -125 65 -175 19 -49 40
            -108 49 -130 8 -22 21 -53 30 -70 9 -16 16 -36 16 -43 0 -7 27 -79 59 -160 70
            -172 151 -387 196 -523 18 -53 37 -105 43 -115 5 -10 12 -38 15 -62 l5 -42
            -36 0 c-21 1 -77 12 -127 26 -96 26 -160 42 -295 74 -47 11 -101 24 -120 29
            -39 10 -166 39 -220 51 -19 4 -71 17 -114 29 -44 11 -89 21 -101 21 -12 0 -30
            7 -41 15 -10 8 -36 15 -56 15 -20 0 -49 5 -65 11 -15 7 -46 15 -68 20 -22 4
            -78 17 -125 29 -47 11 -103 25 -125 30 -148 33 -281 72 -309 89 -19 12 -38 34
            -43 49 -25 69 -43 144 -54 222 -6 47 -15 96 -20 110 -4 14 -17 79 -29 145 -12
            66 -27 145 -34 175 -8 30 -14 64 -14 75 0 11 -7 52 -16 90 -35 166 -90 447
            -102 525 -7 47 -19 113 -28 148 -11 45 -13 69 -6 82 5 10 10 29 10 42 1 25
            127 168 149 168 6 0 15 8 18 17 4 10 181 192 393 406 376 379 387 388 412 377
            18 -9 34 -31 52 -74z"/>
            <path d="M4255 2575 c-16 -14 -40 -31 -52 -38 -12 -7 -55 -32 -95 -56 -39 -24
            -81 -49 -92 -55 -12 -6 -39 -23 -61 -36 -130 -80 -218 -133 -239 -144 -21 -11
            -83 -49 -121 -74 -11 -6 -29 -17 -40 -22 -11 -6 -33 -19 -50 -30 -16 -11 -39
            -24 -50 -30 -11 -6 -33 -19 -50 -29 -16 -11 -48 -29 -70 -41 -22 -12 -58 -34
            -80 -49 -22 -15 -47 -30 -56 -33 -8 -3 -42 -23 -75 -44 -80 -52 -95 -61 -123
            -74 -13 -6 -38 -21 -55 -33 -39 -28 -59 -40 -118 -69 -53 -25 -63 -43 -78
            -133 -21 -128 -38 -222 -48 -265 -13 -53 -31 -147 -42 -210 -14 -87 -32 -175
            -41 -206 -5 -18 -14 -60 -19 -95 -4 -35 -13 -83 -19 -106 -14 -54 -30 -121
            -38 -152 -7 -29 18 -51 60 -51 15 0 49 -6 75 -14 26 -8 74 -21 107 -30 33 -9
            76 -22 95 -28 19 -6 51 -15 70 -18 33 -7 138 -35 245 -66 57 -17 96 -27 180
            -48 33 -8 92 -25 130 -36 39 -12 89 -25 113 -30 23 -5 51 -14 61 -20 11 -5 30
            -10 43 -10 12 0 40 -6 63 -14 91 -31 122 -40 160 -47 22 -4 54 -12 70 -17 17
            -6 59 -19 95 -28 36 -9 91 -26 124 -36 32 -10 62 -18 67 -16 6 2 11 494 13
            1253 1 688 5 1261 7 1275 6 35 -27 37 -66 5z m-52 -237 c3 -18 6 -501 6 -1074
            1 -1214 15 -1090 -116 -1054 -43 12 -100 28 -128 36 -27 8 -61 16 -75 19 -14
            2 -54 13 -90 24 -36 11 -96 27 -135 36 -38 9 -83 23 -100 30 -16 8 -50 17 -75
            20 -25 4 -63 13 -85 20 -55 18 -135 40 -230 64 -168 43 -310 83 -327 92 -9 5
            -27 9 -40 9 -13 1 -43 11 -68 23 -66 33 -68 48 -26 252 9 44 23 118 32 165 19
            105 52 272 64 325 4 22 16 76 25 120 38 182 45 190 267 309 26 14 50 31 54 37
            3 6 23 19 43 28 20 9 77 41 126 72 50 31 102 62 117 70 30 16 141 81 463 276
            173 104 228 132 256 133 34 0 37 -3 42 -32z"/>
            <path d="M4656 2523 c4 -16 9 -583 10 -1262 2 -678 5 -1236 8 -1239 3 -3 21 2
            38 10 33 16 87 33 203 63 33 9 74 21 90 27 17 5 48 14 70 19 22 4 74 18 115
            29 41 12 91 25 110 29 34 7 84 22 145 43 17 5 41 12 55 14 14 3 49 11 78 19
            28 8 77 22 107 30 30 8 79 21 108 29 28 8 79 22 112 31 33 9 84 22 113 30 70
            20 151 42 215 59 28 8 77 21 108 30 31 9 66 16 79 16 24 0 24 -3 0 105 -6 28
            -16 70 -22 95 -9 39 -22 109 -43 230 -3 19 -12 64 -20 100 -18 87 -34 173 -45
            242 -4 31 -13 72 -18 90 -10 32 -25 113 -42 228 -4 30 -13 68 -19 83 -6 16
            -11 45 -11 65 0 20 -7 59 -15 86 -8 27 -15 75 -15 108 0 75 -14 76 -84 1 -30
            -32 -91 -96 -135 -143 -45 -47 -81 -88 -81 -92 0 -14 -53 -8 -64 7 -6 8 -90
            73 -186 144 -96 71 -189 141 -206 155 -18 14 -35 26 -38 26 -4 0 -12 5 -19 10
            -7 6 -154 117 -327 246 -173 130 -319 242 -323 250 -4 8 -20 14 -34 14 -23 0
            -25 -3 -17 -27z m232 -268 c37 -25 87 -61 112 -80 25 -19 75 -56 112 -82 36
            -26 104 -76 150 -110 46 -35 99 -74 118 -88 19 -14 60 -44 90 -68 30 -24 80
            -60 110 -80 30 -20 80 -54 110 -76 30 -22 76 -47 102 -56 61 -21 101 -9 175
            51 63 51 98 63 120 41 15 -15 51 -167 58 -244 2 -23 10 -66 18 -95 8 -29 22
            -96 32 -148 9 -52 23 -129 31 -170 18 -87 51 -279 64 -364 7 -49 6 -63 -8 -82
            -19 -26 -87 -54 -177 -73 -33 -7 -75 -19 -93 -27 -18 -8 -44 -14 -57 -14 -13
            0 -26 -4 -29 -9 -3 -5 -20 -11 -38 -14 -46 -7 -176 -40 -283 -72 -49 -14 -110
            -32 -135 -39 -25 -7 -88 -23 -140 -35 -52 -13 -108 -27 -125 -33 -16 -6 -53
            -16 -82 -22 -28 -6 -55 -15 -59 -19 -4 -4 -19 -7 -34 -7 -14 0 -30 -4 -36 -10
            -16 -16 -164 -51 -185 -45 -10 4 -23 15 -29 25 -13 25 -12 2001 1 2053 6 22
            16 37 25 37 8 0 45 -20 82 -45z"/>
            </g>
        </svg>
</svg>
