<?xml version="1.0" encoding="iso-8859-1"?>
<!-- Generator: Adobe Illustrator 19.0.0, SVG Export Plug-In . SVG Version: 6.00 Build 0)  -->
<svg class="sidebar-svg-icon" version="1.1" id="Capa_1" xmlns="http://www.w3.org/2000/svg" xmlns:xlink="http://www.w3.org/1999/xlink" x="0px" y="0px"
	 viewBox="0 0 512 512" style="enable-background:new 0 0 512 512;" xml:space="preserve">
<g>
	<g>
		<rect x="422" y="211" width="90" height="180"/>
	</g>
</g>
<g>
	<g>
		<path d="M422,421v15c0,24.814,20.186,45,45,45c24.814,0,45-20.186,45-45v-15H422z"/>
	</g>
</g>
<g>
	<g>
		<path d="M507.254,152.963l-26.836-53.672c-5.098-10.166-21.738-10.166-26.836,0l-26.836,53.672
			c-3.105,6.211-4.746,13.169-4.746,20.112V181h90v-7.925C512,166.132,510.359,159.174,507.254,152.963z"/>
	</g>
</g>
<g>
	<g>
		<path d="M255,30h-17.563C231.24,12.539,214.556,0,195,0c-19.556,0-36.24,12.539-42.437,30H135c-24.814,0-45,20.186-45,45v15h210
			V75C300,50.186,279.814,30,255,30z"/>
	</g>
</g>
<g>
	<g>
		<path d="M345,60h-15v45c0,8.291-6.709,15-15,15H75c-8.291,0-15-6.709-15-15V60H45C20.186,60,0,80.186,0,105v362
			c0,24.814,20.186,45,45,45h300c24.814,0,45-20.186,45-45V105C390,80.186,369.814,60,345,60z M175.605,387.605l-60,60
			c-5.86,5.86-15.351,5.86-21.211,0l-30-30c-5.859-5.859-5.859-15.352,0-21.211s15.352-5.859,21.211,0L105,415.789l49.395-49.395
			c5.859-5.859,15.352-5.859,21.211,0S181.465,381.746,175.605,387.605z M175.605,281.605l-60,60c-5.86,5.86-15.351,5.86-21.211,0
			l-30-30c-5.859-5.859-5.859-15.352,0-21.211s15.352-5.859,21.211,0L105,309.789l49.395-49.395c5.859-5.859,15.352-5.859,21.211,0
			C181.465,266.253,181.465,275.746,175.605,281.605z M175.605,176.605l-60,60c-5.86,5.86-15.351,5.86-21.211,0l-30-30
			c-5.859-5.859-5.859-15.352,0-21.211s15.352-5.859,21.211,0L105,204.789l49.395-49.395c5.859-5.859,15.352-5.859,21.211,0
			S181.465,170.746,175.605,176.605z M315,422h-90c-8.291,0-15-6.709-15-15c0-8.291,6.709-15,15-15h90c8.291,0,15,6.709,15,15
			C330,415.291,323.291,422,315,422z M315,316h-90c-8.291,0-15-6.709-15-15c0-8.291,6.709-15,15-15h90c8.291,0,15,6.709,15,15
			C330,309.291,323.291,316,315,316z M315,211h-90c-8.291,0-15-6.709-15-15s6.709-15,15-15h90c8.291,0,15,6.709,15,15
			S323.291,211,315,211z"/>
	</g>
</g>
<g>
</g>
<g>
</g>
<g>
</g>
<g>
</g>
<g>
</g>
<g>
</g>
<g>
</g>
<g>
</g>
<g>
</g>
<g>
</g>
<g>
</g>
<g>
</g>
<g>
</g>
<g>
</g>
<g>
</g>
</svg>
