<svg height="448pt" viewBox="0 0 448 448.03052" width="448pt" xmlns="http://www.w3.org/2000/svg"><path d="m301.488281 224.03125c46.496094.566406 85.699219-34.527344 90.261719-80.800781 2.054688-24.015625-5.871094-47.816407-21.917969-65.804688-16.042969-17.988281-38.789062-28.574219-62.878906-29.265625-2.773437-.074218-5.308594-1.59375-6.683594-4-18.472656-32.214844-55.207031-49.339844-91.757812-42.777344-36.554688 6.5625-65.035157 35.394532-71.152344 72.023438-.75 3.839844-4.089844 6.628906-8 6.679688l-1.152344-.054688c-21.019531-.027344-41.003906 9.117188-54.722656 25.039062-13.71875 15.925782-19.804687 37.042969-16.667969 57.824219 6.085938 35.6875 37.253906 61.632813 73.453125 61.136719zm0 0"/><path d="m.015625 400.03125h112v48h-112zm0 0"/><path d="m168.015625 400.03125h112v48h-112zm0 0"/><path d="m336.015625 400.03125h112v48h-112zm0 0"/><path d="m216.015625 240.03125h16v144h-16zm0 0"/><path d="m64.015625 384.03125h-16v-72c0-4.417969 3.582031-8 8-8h88v-64h16v72c0 4.417969-3.582031 8-8 8h-88zm0 0"/><path d="m400.015625 384.03125h-16v-64h-88c-4.417969 0-8-3.582031-8-8v-72h16v64h88c4.417969 0 8 3.582031 8 8zm0 0"/></svg>