<?xml version="1.0" encoding="iso-8859-1"?>
<!-- Generator: Adobe Illustrator 19.0.0, SVG Export Plug-In . SVG Version: 6.00 Build 0)  -->
<svg title="Discount Type" title-direction="right" class="sidebar-svg-icon" xmlns="http://www.w3.org/2000/svg" xmlns:xlink="http://www.w3.org/1999/xlink" version="1.1" id="Layer_1" x="0px" y="0px" viewBox="0 0 512 512" style="enable-background:new 0 0 512 512;" xml:space="preserve">
<g>
	<path d="M316,241c-8.276,0-15,6.724-15,15s6.724,15,15,15s15-6.724,15-15S324.276,241,316,241z"/>
	<polygon points="421,415.551 256.366,356.313 91,416 91,0 0,0 0,30 30,30 30,512 255.897,422.04 482,512 482,30 512,30 512,0    421,0  "/>
	<path d="M121,371.532l135.542-47.036L391,372.865V0H121V371.532z M316,301c-24.814,0-45-20.186-45-45s20.186-45,45-45   s45,20.186,45,45S340.814,301,316,301z M357.997,84.994l-180,240l-23.994-17.988l180-240L357.997,84.994z M196,91   c24.814,0,45,20.186,45,45s-20.186,45-45,45s-45-20.186-45-45S171.186,91,196,91z"/>
	<path d="M196,151c8.276,0,15-6.724,15-15s-6.724-15-15-15s-15,6.724-15,15S187.724,151,196,151z"/>
</g>















</svg>
