<?xml version="1.0" encoding="iso-8859-1"?>
<!-- Generator: Adobe Illustrator 19.0.0, SVG Export Plug-In . SVG Version: 6.00 Build 0)  -->
<svg version="1.1" title="Financing Price Adjustments" title-direction="right" class="sidebar-svg-icon" id="Layer_1" xmlns="http://www.w3.org/2000/svg" xmlns:xlink="http://www.w3.org/1999/xlink" x="0px" y="0px"
	 viewBox="0 0 512.048 512.048" style="enable-background:new 0 0 512.048 512.048;" xml:space="preserve">
<g>
	<g>
		<g>
			<path d="M384.005,213.347c2.837,0,5.611,0.299,8.427,0.405l27.989-27.989c4.011-4.011,6.251-9.408,6.251-15.083V21.347
				c0-11.797-9.536-21.333-21.333-21.333H256.005c-5.675,0-11.072,2.24-15.083,6.251L6.256,240.931
				c-8.341,8.341-8.341,21.824,0,30.165l149.333,149.333c4.16,4.16,9.621,6.251,15.083,6.251c5.461,0,10.923-2.091,15.083-6.251
				l27.989-27.989c-0.107-2.816-0.405-5.589-0.405-8.427C213.339,289.763,289.733,213.347,384.005,213.347z M320.005,64.013
				c23.552,0,42.667,19.093,42.667,42.667c0,23.531-19.115,42.667-42.667,42.667c-23.595,0-42.667-19.136-42.667-42.667
				C277.339,83.107,296.411,64.013,320.005,64.013z"/>
			<path d="M512.048,405.347V362.68h-23.509c-2.795-13.611-8.213-26.219-15.637-37.419l16.725-16.725l-30.165-30.165l-16.747,16.725
				c-11.179-7.403-23.765-12.821-37.355-15.573v-23.509h-42.667v23.509c-13.611,2.752-26.197,8.192-37.397,15.595l-16.704-16.704
				l-30.165,30.165l16.704,16.704c-7.424,11.179-12.843,23.808-15.616,37.397h-23.509v42.667h23.509
				c2.795,13.611,8.213,26.219,15.616,37.419l-16.704,16.725l30.187,30.144l16.683-16.725c11.2,7.424,23.829,12.864,37.419,15.616
				v23.509h42.667v-23.531c13.589-2.773,26.197-8.213,37.397-15.616l16.725,16.704l30.144-30.187l-16.725-16.683
				c7.424-11.179,12.843-23.787,15.616-37.376H512.048z M384.005,426.68c-23.573,0-42.667-19.115-42.667-42.667
				s19.093-42.667,42.667-42.667c23.552,0,42.667,19.115,42.667,42.667S407.557,426.68,384.005,426.68z"/>
		</g>
	</g>
</g>
<g>
</g>
<g>
</g>
<g>
</g>
<g>
</g>
<g>
</g>
<g>
</g>
<g>
</g>
<g>
</g>
<g>
</g>
<g>
</g>
<g>
</g>
<g>
</g>
<g>
</g>
<g>
</g>
<g>
</g>
</svg>
