<svg title="Interface" title-direction="right" version="1.1" class="sidebar-svg-icon" id="Capa_1" xmlns="http://www.w3.org/2000/svg" xmlns:xlink="http://www.w3.org/1999/xlink" x="0px" y="0px"
	 viewBox="0 0 58 58" style="enable-background:new 0 0 58 58;" xml:space="preserve">
<path d="m13 52v-5h3l-5-8-5 8h3v6c0 2.209 1.791 4 4 4h12v-4h-11c-.552 0-1-.448-1-1z"/><path d="m51 12v5h-3l5 8 5-8h-3v-6c0-2.209-1.791-4-4-4h-12v4h11c.552 0 1 .448 1 1z"/>
<path d="m7 15h8.001v10h-8.001z"/><path d="m21 42v4c0 .552.449 1 1 1h20c.551 0 1-.448 1-1v-4c0-.552-.449-1-1-1h-20c-.551 0-1 .448-1 1zm10 1h2v2h-2zm-4 0h2v2h-2zm-4 0h2v2h-2z"/><path d="m22 27v-2c-1.654 0-3-1.346-3-3v-4c0-1.654 1.346-3 3-3h13v-4h-32v17c0 .551.449 1 1 1h15.184c.414-1.161 1.514-2 2.816-2zm-5-2c0 1.103-.897 2-2 2h-8c-1.103 0-2-.897-2-2v-10c0-1.103.897-2 2-2h8c1.103 0 2 .897 2 2z"/><path d="m35 4c0-.551-.449-1-1-1h-30c-.551 0-1 .449-1 1v5h32zm-28 3h-2v-2h2zm4 0h-2v-2h2zm4 0h-2v-2h2z"/><path d="m43 34v-4c0-.551-.449-1-1-1h-20c-.551 0-1 .449-1 1v4c0 .552.449 1 1 1h20c.551 0 1-.448 1-1zm-10-1h-2v-2h2zm4 0h-2v-2h2zm4 0h-2v-2h2z"/><path d="m24 25h16v2h-16z"/><path d="m43 18c0-.551-.449-1-1-1h-20c-.551 0-1 .449-1 1v4c0 .551.449 1 1 1h20c.551 0 1-.449 1-1zm-18 3h-2v-2h2zm4 0h-2v-2h2zm4 0h-2v-2h2z"/>
<path d="m24 37h16v2h-16z"/>
<path d="m33 53h10v4h-10z"/>
<path d="m45 46c0 1.654-1.346 3-3 3h-13v11c0 .552.449 1 1 1h30c.551 0 1-.448 1-1v-17h-16zm0 13h-14v-8h14zm14 0h-2v-2h2zm-8-14h8v2h-8zm-4 0h2v2h-2zm0 4h12v2h-12zm0 4h12v2h-12zm0 4h8v2h-8z"/>
<path d="m60 35h-15.184c-.414 1.161-1.514 2-2.816 2v2c1.302 0 2.402.839 2.816 2h16.184v-5c0-.552-.449-1-1-1z"/></svg>