<?xml version="1.0" encoding="iso-8859-1"?>
<svg class="sidebar-svg-icon" title="Resync SKU Interface" title-direction="right" version="1.1" id="Layer_1" xmlns="http://www.w3.org/2000/svg" xmlns:xlink="http://www.w3.org/1999/xlink" x="0px" y="0px"
	 viewBox="0 0 426.667 426.667" style="enable-background:new 0 0 426.667 426.667;" xml:space="preserve">
<!-- <svg xmlns="http://www.w3.org/2000/svg" id="Out_line" data-name="Out line" viewBox="0 0 512 512" width="512" height="512"> -->
<path d="M248,393.0127V382.98853q1.34646-.34718,2.66406-.8108l-5.32812-15.08593A15.98874,15.98874,0,0,1,240,368H48a16.01833,16.01833,0,0,1-16-16V336a16.01833,16.01833,0,0,1,16-16H184V304H96v-8H200V280H48a16.01833,16.01833,0,0,1-16-16V248a16.01833,16.01833,0,0,1,16-16H240a16.02783,16.02783,0,0,1,15.09131,10.666l15.08594-5.332A32.05438,32.05438,0,0,0,240,216H48a32.03635,32.03635,0,0,0-32,32v16a32.05723,32.05723,0,0,0,24,30.9873v10.0254A32.05723,32.05723,0,0,0,16,336v16a32.05723,32.05723,0,0,0,24,30.9873v10.0254A32.05723,32.05723,0,0,0,16,424v16a32.05723,32.05723,0,0,0,24,30.9873V488a8.00008,8.00008,0,0,0,8,8H88a8.00008,8.00008,0,0,0,8-8V472h96v16a8.00008,8.00008,0,0,0,8,8h40a8.00008,8.00008,0,0,0,8-8V470.9873A32.05723,32.05723,0,0,0,272,440V424A32.05723,32.05723,0,0,0,248,393.0127ZM80,304H56v-8H80ZM56,392v-8H80v8Zm40-8h96v8H96Zm112,0h24v8H208ZM80,480H56v-8H80Zm128,0v-8h24v8Zm48-40a16.01833,16.01833,0,0,1-16,16H48a16.01833,16.01833,0,0,1-16-16V424a16.01833,16.01833,0,0,1,16-16H240a16.01833,16.01833,0,0,1,16,16Z"/><circle cx="48" cy="432" r="8"/><circle cx="72" cy="432" r="8"/><circle cx="96" cy="432" r="8"/><rect x="192" y="424" width="48" height="16"/><circle cx="48" cy="344" r="8"/><circle cx="72" cy="344" r="8"/><circle cx="96" cy="344" r="8"/><circle cx="48" cy="256" r="8"/><circle cx="72" cy="256" r="8"/><circle cx="96" cy="256" r="8"/><rect x="192" y="248" width="48" height="16"/><circle cx="320" cy="232" r="8"/><rect x="416" y="224" width="48" height="16"/><circle cx="296" cy="144" r="8"/><circle cx="320" cy="144" r="8"/><rect x="416" y="136" width="48" height="16"/><path d="M496,64V48a32.03635,32.03635,0,0,0-32-32H272a32.03635,32.03635,0,0,0-32,32V64a32.05723,32.05723,0,0,0,24,30.9873V112a8.00008,8.00008,0,0,0,8,8H464a16.01833,16.01833,0,0,1,16,16v16a16.01833,16.01833,0,0,1-16,16H312v16H416v8H328v16H464a16.01833,16.01833,0,0,1,16,16v16a16.01833,16.01833,0,0,1-16,16H352v16h64v16a8.00008,8.00008,0,0,0,8,8h40a8.00008,8.00008,0,0,0,8-8V270.9873A32.05723,32.05723,0,0,0,496,240V224a32.05723,32.05723,0,0,0-24-30.9873V182.9873A32.05723,32.05723,0,0,0,496,152V136a32.05723,32.05723,0,0,0-24-30.9873V94.9873A32.05723,32.05723,0,0,0,496,64ZM432,280v-8h24v8Zm0-96h24v8H432ZM416,96v8H320V96Zm16,0h24v8H432ZM256,64V48a16.01833,16.01833,0,0,1,16-16H464a16.01833,16.01833,0,0,1,16,16V64a16.01833,16.01833,0,0,1-16,16H272A16.01833,16.01833,0,0,1,256,64Zm24,32h24v8H280Z"/><circle cx="272" cy="56" r="8"/><circle cx="296" cy="56" r="8"/><circle cx="320" cy="56" r="8"/><rect x="416" y="48" width="48" height="16"/><path d="M288,248a47.90058,47.90058,0,0,0-42.02051,24.76074A23.98647,23.98647,0,0,0,216,296c0,.33569.01947.66968.03345,1.00439A32.00176,32.00176,0,0,0,224,360H328a32.002,32.002,0,0,0,7.98926-62.99023c.00732-.33692.01074-.67286.01074-1.00977A48.054,48.054,0,0,0,288,248Zm56,80a16.01833,16.01833,0,0,1-16,16H224a16,16,0,1,1,10.665-27.92773l10.6709-11.92188a31.92922,31.92922,0,0,0-13.26715-7.11133A7.99266,7.99266,0,0,1,240,288a7.9094,7.9094,0,0,1,4.99121,1.74707A7.99957,7.99957,0,0,0,257.5918,286,32.00628,32.00628,0,0,1,320,296a32.29323,32.29323,0,0,1-.64258,6.41992,8.00045,8.00045,0,0,0,8.10352,9.58985c.1792-.00586.35888-.00977.53906-.00977A16.01833,16.01833,0,0,1,344,328Z"/><path d="M240,128a47.90058,47.90058,0,0,0-42.02051,24.76074A23.98647,23.98647,0,0,0,168,176c0,.34326.01959.68457.03424,1.02661A32.04935,32.04935,0,0,0,145.82275,197.334l15.08594,5.332a16.00665,16.00665,0,0,1,25.75635-6.59375l10.6709-11.92188a31.92922,31.92922,0,0,0-13.26715-7.11133A7.99266,7.99266,0,0,1,192,168a7.9094,7.9094,0,0,1,4.99121,1.74707A7.99957,7.99957,0,0,0,209.5918,166,32.00628,32.00628,0,0,1,272,176a32.29323,32.29323,0,0,1-.64258,6.41992,8.00045,8.00045,0,0,0,8.10352,9.58985c.1792-.00586.35888-.00977.53906-.00977a16,16,0,0,1,0,32v16a32.002,32.002,0,0,0,7.98926-62.99023c.00732-.33692.01074-.67286.01074-1.00977A48.054,48.054,0,0,0,240,128Z"/><path d="M72,72H196.686L178.34326,90.34277l11.31348,11.31446,32-32a8.00034,8.00034,0,0,0,0-11.31446l-32-32L178.34326,37.65723,196.686,56H64a8.00008,8.00008,0,0,0-8,8v72H72Z"/><rect x="56" y="152" width="16" height="16"/><rect x="56" y="184" width="16" height="16"/><path d="M440,440H315.314l18.34278-18.34277-11.31348-11.31446-32,32a8.00034,8.00034,0,0,0,0,11.31446l32,32,11.31348-11.31446L315.314,456H448a8.00008,8.00008,0,0,0,8-8V376H440Z"/><rect x="440" y="344" width="16" height="16"/><rect x="440" y="312" width="16" height="16"/></svg>
