<svg title="Inventory Types" title-direction="right" viewBox="-33 -33 1066.6666 1066.6666" class="sidebar-svg-icon" xmlns="http://www.w3.org/2000/svg"><path d="m878.839844-2.019531v761.71875h-761.71875v-761.71875h-119.140625v1000h119.140625v-121.09375h761.71875v121.09375h119.140625v-1000zm0 0"/><path d="m468.683594-2.019531h58.59375v117.1875h-58.59375zm0 0"/><path d="m703.058594-2.019531h-117.1875v175.78125h-175.78125v-175.78125h-117.1875v351.5625h410.15625zm0 0"/><path d="m292.902344 408.136719h58.59375v58.59375h-58.59375zm0 0"/><path d="m644.464844 408.136719h58.59375v58.59375h-58.59375zm0 0"/><path d="m468.683594 408.136719h-58.59375v117.1875h-175.78125v-117.1875h-58.59375v292.96875h292.96875zm0 0"/><path d="m585.871094 408.136719h-58.59375v292.96875h292.96875v-292.96875h-58.59375v117.1875h-175.78125zm0 0"/></svg>