<?xml version="1.0" encoding="UTF-8"?>
<svg xmlns="http://www.w3.org/2000/svg" xmlns:xlink="http://www.w3.org/1999/xlink" viewBox="0 0 128 128" style="
    background: aliceblue;
" version="1.1">
<g id="surface1">
<path style=" stroke:none;fill-rule:nonzero;fill:rgb(0%,0%,0%);fill-opacity:1;" d="M 24.402344 5.875 L 25.269531 5.867188 L 26.226562 5.871094 C 26.566406 5.871094 26.902344 5.871094 27.242188 5.867188 L 30.035156 5.871094 L 33.042969 5.867188 L 38.941406 5.863281 C 40.769531 5.867188 42.597656 5.867188 44.421875 5.867188 L 45.808594 5.863281 L 58.796875 5.871094 C 62.511719 5.875 66.230469 5.875 69.945312 5.871094 C 74.71875 5.863281 79.492188 5.863281 84.265625 5.867188 L 84.949219 5.867188 C 86.546875 5.867188 88.144531 5.867188 89.738281 5.863281 C 91.683594 5.859375 93.628906 5.863281 95.570312 5.867188 L 98.550781 5.867188 C 99.457031 5.863281 100.367188 5.867188 101.273438 5.871094 L 102.730469 5.867188 L 103.597656 5.875 L 104.351562 5.875 C 105.183594 6.035156 105.484375 6.335938 106 7 C 106.109375 7.746094 106.109375 7.746094 106.082031 8.628906 L 106.074219 9.125 L 106.027344 10.769531 C 106.015625 11.160156 106.007812 11.554688 106 11.945312 C 105.980469 12.792969 105.960938 13.636719 105.9375 14.484375 L 105.867188 18.507812 L 105.84375 20.585938 L 105.671875 29.949219 C 105.609375 32.054688 105.574219 34.160156 105.566406 36.269531 C 105.558594 37.382812 105.542969 38.492188 105.496094 39.605469 C 105.140625 43.953125 105.140625 43.953125 106.566406 47.894531 C 108.191406 49.492188 110.332031 50.367188 112.429688 51.171875 C 113.488281 51.59375 114.441406 52.136719 115.410156 52.730469 L 117.53125 53.933594 C 117.960938 54.179688 118.390625 54.421875 118.816406 54.667969 L 119.546875 55.082031 C 121.671875 56.347656 121.671875 56.347656 122 57 C 122.023438 57.351562 122.035156 57.707031 122.035156 58.058594 L 122.035156 59.484375 L 122.039062 60.273438 C 122.042969 61.15625 122.042969 62.035156 122.042969 62.914062 L 122.050781 64.804688 L 122.058594 70.476562 L 122.0625 73.148438 C 122.066406 76.875 122.070312 80.601562 122.074219 84.328125 L 122.074219 84.90625 L 122.089844 94.183594 C 122.097656 97.359375 122.101562 100.535156 122.105469 103.707031 L 122.113281 109.058594 C 122.117188 110.734375 122.121094 112.410156 122.117188 114.085938 C 122.117188 114.703125 122.121094 115.320312 122.121094 115.933594 L 122.121094 118.453125 L 122.128906 119.199219 L 122.125 119.878906 L 122.125 120.464844 C 121.941406 121.253906 121.65625 121.53125 121 122 C 120.371094 122.09375 119.734375 122.136719 119.097656 122.125 L 118.511719 122.128906 C 117.863281 122.132812 117.210938 122.128906 116.558594 122.128906 C 116.089844 122.128906 115.617188 122.128906 115.148438 122.132812 C 113.851562 122.136719 112.554688 122.132812 111.261719 122.128906 C 109.863281 122.128906 108.46875 122.132812 107.074219 122.132812 L 98.863281 122.136719 C 96.320312 122.132812 93.78125 122.132812 91.238281 122.132812 L 89.3125 122.136719 C 83.460938 122.136719 77.609375 122.136719 71.757812 122.128906 C 66.414062 122.125 61.070312 122.125 55.726562 122.128906 C 49.085938 122.136719 42.445312 122.136719 35.804688 122.132812 L 34.851562 122.132812 C 32.628906 122.132812 30.410156 122.132812 28.1875 122.136719 C 25.480469 122.140625 22.777344 122.136719 20.070312 122.132812 L 15.925781 122.132812 C 14.664062 122.136719 13.398438 122.132812 12.136719 122.128906 C 11.679688 122.128906 11.21875 122.128906 10.761719 122.128906 C 10.140625 122.132812 9.519531 122.128906 8.902344 122.125 L 8.355469 122.132812 C 7.527344 122.121094 7.066406 122.046875 6.390625 121.5625 C 5.953125 120.933594 5.875 120.636719 5.875 119.882812 L 5.863281 119.203125 L 5.871094 118.457031 L 5.867188 117.667969 L 5.867188 115.03125 C 5.863281 114.402344 5.863281 113.773438 5.859375 113.144531 C 5.855469 111.613281 5.855469 110.082031 5.855469 108.550781 C 5.859375 107.304688 5.859375 106.058594 5.855469 104.8125 L 5.855469 93.070312 L 5.847656 83.808594 C 5.839844 80.277344 5.839844 76.75 5.84375 73.21875 L 5.84375 72.683594 C 5.84375 71.441406 5.839844 70.199219 5.835938 68.953125 L 5.839844 63.933594 C 5.839844 63.316406 5.839844 62.703125 5.835938 62.085938 L 5.84375 59.574219 L 5.835938 58.832031 C 5.851562 57.683594 5.867188 57.171875 6.59375 56.242188 C 7.25 55.746094 7.941406 55.304688 8.664062 54.914062 L 9.492188 54.460938 L 9.929688 54.222656 L 11.742188 53.238281 C 12.050781 53.066406 12.355469 52.898438 12.664062 52.734375 L 16.890625 50.359375 L 17.503906 50.007812 C 17.882812 49.792969 18.257812 49.574219 18.628906 49.347656 C 19.25 49 19.25 49 19.898438 48.742188 C 20.65625 48.40625 21.167969 48.09375 21.75 47.5 C 22.125 46.21875 22.070312 44.949219 22.039062 43.628906 C 22.039062 43.230469 22.042969 42.832031 22.042969 42.433594 C 22.046875 41.582031 22.042969 40.726562 22.03125 39.871094 L 22.011719 35.820312 L 21.984375 29.410156 C 21.957031 25.582031 21.941406 21.757812 21.941406 17.929688 C 21.9375 16.585938 21.929688 15.242188 21.917969 13.898438 L 21.90625 11.394531 C 21.90625 11.007812 21.902344 10.621094 21.894531 10.234375 C 21.886719 9.703125 21.886719 9.175781 21.886719 8.648438 L 21.878906 7.75 C 22.117188 6.269531 22.992188 5.875 24.402344 5.875 M 26 10 L 26 66 L 32.75 69.75 L 37.257812 72.382812 L 42.714844 75.472656 L 51.800781 80.648438 L 60.203125 85.453125 L 61 85.902344 L 61.738281 86.316406 L 62.386719 86.679688 L 63 87 L 63.609375 87.339844 C 64.554688 87.574219 64.957031 87.234375 65.78125 86.746094 L 66.21875 86.488281 C 66.683594 86.214844 67.148438 85.9375 67.609375 85.65625 C 67.910156 85.476562 68.214844 85.300781 68.515625 85.121094 C 69.125 84.761719 69.730469 84.402344 70.339844 84.039062 C 71.796875 83.171875 73.273438 82.339844 74.75 81.5 C 75.300781 81.183594 75.851562 80.867188 76.402344 80.550781 L 84.9375 75.71875 L 91.734375 71.816406 C 94.328125 70.300781 96.949219 68.835938 99.574219 67.378906 L 102 66 L 102 10 Z M 106 52.5 L 106 63.5 C 108.328125 62.347656 108.328125 62.347656 110.589844 61.097656 L 111.371094 60.636719 L 112.15625 60.171875 L 113.746094 59.238281 L 114.441406 58.824219 C 114.789062 58.621094 115.140625 58.429688 115.5 58.25 L 115.5 57.75 L 114.972656 57.457031 C 114.171875 57.007812 113.367188 56.558594 112.5625 56.109375 L 111.734375 55.648438 C 110.082031 54.726562 108.441406 53.78125 106.8125 52.816406 C 106.320312 52.480469 106.320312 52.480469 106 52.5 M 20.464844 53.203125 L 19.652344 53.660156 L 18.796875 54.140625 L 17.972656 54.601562 C 17.148438 55.066406 16.324219 55.53125 15.5 56 L 14.625 56.488281 L 13.792969 56.960938 L 13.039062 57.382812 L 12.5 57.75 L 12.5 58.25 L 13.027344 58.542969 C 13.828125 58.992188 14.632812 59.441406 15.4375 59.890625 L 16.265625 60.351562 C 17.917969 61.273438 19.558594 62.21875 21.1875 63.183594 C 21.679688 63.519531 21.679688 63.519531 22 63.5 L 22 52.5 C 21.46875 52.5 20.90625 52.957031 20.464844 53.203125 M 10 61.75 L 10 115.75 C 12.472656 113.894531 14.925781 112.011719 17.355469 110.097656 C 18.566406 109.144531 19.78125 108.195312 21 107.25 C 22.78125 105.867188 24.558594 104.476562 26.328125 103.082031 C 27.050781 102.511719 27.777344 101.945312 28.5 101.375 L 42.0625 90.71875 L 42.933594 90.035156 C 43.683594 89.445312 44.429688 88.859375 45.179688 88.269531 L 46.09375 87.546875 L 46.535156 87.199219 C 47.335938 86.570312 48.144531 85.957031 48.96875 85.359375 L 49.75 84.75 L 49.75 84.25 L 49.21875 83.945312 L 48.464844 83.515625 L 45.734375 81.953125 C 44.132812 81.039062 42.535156 80.128906 40.9375 79.214844 L 39.1875 78.21875 L 38.746094 77.96875 C 36.726562 76.8125 34.710938 75.648438 32.703125 74.46875 L 25.839844 70.5625 L 20.5 67.5 C 18.371094 66.25 16.230469 65.023438 14.078125 63.8125 L 13.277344 63.359375 L 12.527344 62.941406 L 11.871094 62.574219 C 11.160156 62.191406 11.160156 62.191406 10 61.75 M 116.359375 62.390625 L 115.640625 62.816406 L 114.859375 63.28125 C 112.714844 64.546875 110.550781 65.789062 108.375 67 C 106.085938 68.277344 103.816406 69.578125 101.554688 70.902344 C 99.636719 72.023438 97.710938 73.136719 95.78125 74.234375 C 93.253906 75.675781 90.730469 77.125 88.210938 78.582031 C 86.75 79.425781 85.28125 80.265625 83.8125 81.097656 L 82.839844 81.648438 C 82.371094 81.917969 81.898438 82.183594 81.425781 82.449219 C 80.992188 82.691406 80.558594 82.9375 80.125 83.183594 L 79.375 83.605469 C 78.828125 83.949219 78.425781 84.273438 78 84.75 L 78.339844 85.015625 L 78.828125 85.390625 L 79.371094 85.816406 L 80.582031 86.757812 C 81.613281 87.558594 82.644531 88.363281 83.679688 89.164062 C 85.511719 90.589844 87.34375 92.019531 89.171875 93.457031 L 95 98 L 101.671875 103.207031 L 107.5 107.75 L 113.890625 112.734375 L 114.320312 113.070312 C 114.949219 113.566406 115.578125 114.0625 116.207031 114.558594 L 116.828125 115.046875 L 117.355469 115.464844 C 117.703125 115.773438 117.703125 115.773438 118 115.75 L 118 61.75 C 117.308594 61.75 116.953125 62.039062 116.359375 62.390625 M 52.421875 87.84375 C 51.351562 88.753906 50.273438 89.632812 49.15625 90.484375 C 48.039062 91.335938 46.929688 92.195312 45.828125 93.0625 C 44.472656 94.128906 43.113281 95.191406 41.75 96.25 C 39.828125 97.742188 37.910156 99.242188 36 100.75 C 33.894531 102.40625 31.785156 104.058594 29.667969 105.703125 C 28.527344 106.589844 27.386719 107.480469 26.25 108.375 C 24.726562 109.570312 23.203125 110.761719 21.671875 111.949219 C 20.339844 112.984375 19.007812 114.027344 17.679688 115.070312 C 16.667969 115.871094 15.648438 116.660156 14.617188 117.4375 L 14.25 117.75 L 14.25 118 L 113.5 118 C 112.460938 116.957031 112.460938 116.957031 111.367188 116.003906 L 110.882812 115.613281 L 110.375 115.203125 L 109.839844 114.769531 L 105.800781 111.613281 L 101.941406 108.597656 C 101.210938 108.023438 100.480469 107.449219 99.75 106.875 C 98.886719 106.195312 98.023438 105.519531 97.160156 104.839844 C 95.527344 103.554688 93.890625 102.273438 92.25 101 C 90.46875 99.617188 88.691406 98.226562 86.921875 96.832031 C 86.199219 96.261719 85.472656 95.695312 84.75 95.125 L 81.6875 92.71875 L 80.816406 92.035156 C 80.0625 91.445312 79.3125 90.851562 78.5625 90.257812 L 78.09375 89.890625 C 77.804688 89.660156 77.511719 89.429688 77.21875 89.199219 C 76.953125 88.984375 76.683594 88.777344 76.410156 88.566406 C 76.121094 88.34375 75.835938 88.117188 75.550781 87.882812 L 75.101562 87.527344 L 74.695312 87.203125 C 74.042969 86.90625 73.683594 87.039062 73 87.25 C 72.515625 87.484375 72.039062 87.738281 71.574219 88.003906 L 70.753906 88.46875 L 69.90625 88.953125 L 69.066406 89.429688 L 66.207031 91.078125 C 65.394531 91.5625 64.707031 91.964844 63.75 92 C 63.074219 91.765625 63.074219 91.765625 62.296875 91.359375 L 61.863281 91.132812 C 59.953125 90.125 58.101562 89.011719 56.25 87.90625 L 55.488281 87.453125 L 54.800781 87.042969 C 53.679688 86.449219 53.308594 87.078125 52.421875 87.84375 M 41.125 17.609375 L 41.695312 17.59375 C 42.554688 17.835938 42.804688 18.242188 43.25 19 C 43.320312 19.691406 43.347656 20.269531 43.3125 20.953125 L 43.296875 21.476562 C 43.285156 21.902344 43.269531 22.328125 43.25 22.75 L 43.71875 22.851562 C 45.882812 23.402344 47.527344 24.410156 48.75 26.3125 C 49.527344 27.664062 49.71875 28.957031 49.5 30.5 C 49.015625 31.046875 49.015625 31.046875 48.25 31.25 C 47.457031 31.289062 46.761719 31.234375 46 31 C 45.46875 30.433594 45.304688 29.9375 45.085938 29.203125 C 44.703125 27.9375 44.441406 27.214844 43.25 26.5 C 41.902344 26.050781 40.308594 26.003906 38.941406 26.421875 C 38.199219 26.804688 37.746094 27.257812 37.25 27.921875 C 36.917969 29.023438 36.925781 29.898438 37.25 31 C 37.792969 31.953125 38.488281 32.578125 39.5 33 C 40.03125 33.109375 40.03125 33.109375 40.59375 33.160156 C 43.644531 33.515625 46.199219 33.882812 48.265625 36.375 C 49.507812 38.167969 49.757812 39.84375 49.5 42 C 48.863281 44.085938 47.542969 45.542969 45.648438 46.578125 C 44.800781 46.972656 44.191406 47.25 43.25 47.25 L 43.265625 47.980469 L 43.28125 48.9375 L 43.296875 49.886719 C 43.253906 50.683594 43.199219 51.101562 42.75 51.75 C 42.136719 52.058594 41.699219 52.050781 41.015625 52.0625 L 40.351562 52.082031 C 39.75 52 39.75 52 39.296875 51.75 C 38.820312 50.949219 38.921875 50.105469 38.953125 49.203125 L 38.964844 48.636719 L 39 47.25 L 38.320312 47.160156 C 36.160156 46.742188 34.402344 45.304688 33.171875 43.523438 C 32.488281 42.324219 32.195312 41.117188 32.5 39.75 C 33.167969 38.921875 33.578125 38.777344 34.625 38.609375 C 35.765625 38.792969 36.070312 39.074219 36.75 40 C 36.957031 40.566406 37.128906 41.132812 37.296875 41.710938 C 37.6875 42.746094 38.402344 43.308594 39.34375 43.828125 C 40.917969 44.242188 42.335938 44.027344 43.75 43.25 C 44.617188 42.359375 44.957031 41.679688 45.078125 40.4375 C 44.988281 39.355469 44.746094 38.554688 44 37.75 C 42.867188 37.050781 41.910156 36.886719 40.59375 36.78125 C 37.988281 36.507812 35.710938 35.808594 33.90625 33.808594 C 32.8125 32.308594 32.320312 30.714844 32.402344 28.863281 C 32.671875 27.152344 33.519531 25.703125 34.75 24.5 C 36.015625 23.671875 37.460938 22.75 39 22.75 L 38.964844 21.910156 C 38.957031 21.542969 38.945312 21.179688 38.9375 20.8125 L 38.910156 20.261719 C 38.894531 19.382812 38.925781 18.855469 39.433594 18.128906 C 40.058594 17.710938 40.378906 17.609375 41.125 17.609375 M 36.273438 56.464844 L 36.988281 56.460938 C 37.78125 56.460938 38.574219 56.460938 39.367188 56.460938 L 41.066406 56.457031 C 42.609375 56.453125 44.152344 56.449219 45.695312 56.449219 L 48.585938 56.445312 C 51.253906 56.445312 53.917969 56.441406 56.585938 56.441406 L 59.183594 56.441406 C 61.96875 56.4375 64.757812 56.433594 67.542969 56.429688 C 70.40625 56.421875 73.265625 56.417969 76.125 56.417969 C 77.734375 56.417969 79.339844 56.417969 80.945312 56.414062 C 82.457031 56.410156 83.96875 56.410156 85.476562 56.410156 C 86.03125 56.410156 86.585938 56.410156 87.144531 56.40625 L 89.414062 56.410156 L 90.082031 56.402344 C 91.257812 56.410156 92.050781 56.476562 93 57.25 C 93.585938 58.128906 93.644531 58.464844 93.5 59.5 C 93 60.1875 92.601562 60.667969 91.746094 60.863281 C 91.117188 60.910156 90.5 60.917969 89.867188 60.910156 L 89.136719 60.914062 C 88.324219 60.917969 87.515625 60.914062 86.707031 60.910156 C 86.128906 60.914062 85.546875 60.914062 84.96875 60.917969 C 83.394531 60.925781 81.816406 60.921875 80.242188 60.917969 C 78.59375 60.914062 76.949219 60.917969 75.300781 60.917969 C 72.359375 60.921875 69.414062 60.917969 66.472656 60.910156 C 63.800781 60.90625 61.132812 60.90625 58.464844 60.914062 L 49.167969 60.917969 C 47.527344 60.917969 45.882812 60.917969 44.242188 60.921875 C 42.703125 60.921875 41.160156 60.921875 39.617188 60.914062 C 39.050781 60.914062 38.484375 60.914062 37.917969 60.914062 C 37.144531 60.917969 36.375 60.914062 35.601562 60.910156 L 34.917969 60.917969 C 33.40625 60.894531 33.40625 60.894531 32.609375 60.160156 C 32.167969 59.347656 32.097656 58.914062 32.25 58 C 33.316406 56.34375 34.449219 56.464844 36.273438 56.464844 M 57.902344 42.214844 L 59.800781 42.214844 L 60.84375 42.210938 C 61.792969 42.210938 62.738281 42.207031 63.6875 42.207031 C 64.476562 42.207031 65.265625 42.207031 66.058594 42.207031 C 67.921875 42.203125 69.785156 42.203125 71.648438 42.203125 C 73.574219 42.203125 75.5 42.203125 77.421875 42.195312 C 79.074219 42.195312 80.726562 42.191406 82.375 42.191406 C 83.363281 42.191406 84.347656 42.191406 85.335938 42.191406 C 86.261719 42.1875 87.191406 42.1875 88.117188 42.1875 L 89.628906 42.183594 L 90.535156 42.1875 L 91.324219 42.1875 C 92.015625 42.25 92.417969 42.378906 93 42.75 C 93.574219 43.554688 93.636719 44.28125 93.5 45.25 C 93.089844 45.902344 92.910156 46.144531 92.25 46.5 C 91.109375 46.691406 89.972656 46.664062 88.820312 46.652344 C 88.464844 46.65625 88.113281 46.65625 87.757812 46.65625 C 86.800781 46.660156 85.84375 46.65625 84.886719 46.652344 L 81.878906 46.648438 C 80.195312 46.648438 78.511719 46.644531 76.828125 46.636719 C 74.882812 46.625 72.9375 46.625 70.992188 46.625 C 69.121094 46.628906 67.246094 46.625 65.375 46.621094 C 64.578125 46.617188 63.78125 46.617188 62.984375 46.617188 C 62.046875 46.617188 61.109375 46.613281 60.171875 46.609375 C 59.828125 46.605469 59.480469 46.605469 59.136719 46.605469 C 58.667969 46.605469 58.199219 46.601562 57.726562 46.597656 L 56.933594 46.597656 C 56.15625 46.488281 55.8125 46.285156 55.25 45.75 C 54.984375 45.089844 54.9375 44.460938 55 43.75 C 55.820312 42.417969 56.394531 42.21875 57.902344 42.214844 M 57.960938 27.9375 L 58.867188 27.933594 L 59.855469 27.933594 C 60.203125 27.933594 60.554688 27.933594 60.902344 27.933594 L 66.703125 27.933594 C 68.367188 27.929688 70.027344 27.933594 71.6875 27.933594 C 73.609375 27.9375 75.527344 27.9375 77.449219 27.933594 C 79.097656 27.933594 80.746094 27.929688 82.394531 27.933594 C 83.378906 27.933594 84.367188 27.933594 85.351562 27.933594 C 86.277344 27.929688 87.203125 27.929688 88.128906 27.933594 L 89.632812 27.933594 L 90.539062 27.9375 L 91.324219 27.9375 C 92.015625 28 92.417969 28.132812 93 28.5 C 93.640625 29.292969 93.511719 30.066406 93.421875 31.023438 C 93.179688 31.699219 92.859375 31.882812 92.25 32.25 C 91.566406 32.34375 91.566406 32.34375 90.769531 32.347656 L 89.851562 32.355469 L 88.847656 32.351562 L 87.789062 32.355469 L 84.910156 32.359375 C 84.113281 32.359375 83.3125 32.359375 82.511719 32.359375 C 80.625 32.363281 78.738281 32.363281 76.847656 32.363281 C 74.902344 32.359375 72.953125 32.363281 71.003906 32.367188 C 69.332031 32.375 67.660156 32.375 65.988281 32.375 C 64.988281 32.375 63.992188 32.375 62.992188 32.378906 C 62.054688 32.382812 61.113281 32.382812 60.175781 32.375 C 59.832031 32.375 59.484375 32.375 59.140625 32.378906 C 58.671875 32.382812 58.199219 32.378906 57.730469 32.375 L 56.933594 32.375 C 56.070312 32.21875 55.78125 31.9375 55.25 31.25 C 55.035156 30.390625 54.917969 29.777344 55.171875 28.921875 C 55.914062 27.96875 56.816406 27.9375 57.960938 27.9375 "/>
</g>
</svg>
