<svg id="Layer_3" enable-background="new 0 0 64 64" viewBox="0 0 64 64" class="sidebar-svg-icon" xmlns="http://www.w3.org/2000/svg"><path d="m5 23h18v2h-18z"/><path d="m3 3h22v6h-22z"/><path d="m3 27h22v6h-22z"/><path d="m5 11h18v2h-18z"/><path d="m3 15h22v6h-22z"/><path d="m53 43h2.586l-2.586-2.586z"/><path d="m45 35v2h7c.277 0 .527.112.708.294l5.998 5.998c.182.181.294.431.294.708v13h2v-22z"/><path d="m51 44v-5h-10v22h16v-16h-5c-.552 0-1-.447-1-1z"/><path d="m31.707 46.293-1.414 1.414 3.293 3.293h-11.586c-4.962 0-9-4.037-9-9v-5h-2v5c0 6.065 4.935 11 11 11h11.586l-3.293 3.293 1.414 1.414 5-5c.391-.391.391-1.023 0-1.414z"/><path d="m34.293 17.707 1.414-1.414-3.293-3.293h9.586c4.962 0 9 4.038 9 9v5h2v-5c0-6.065-4.935-11-11-11h-9.586l3.293-3.293-1.414-1.414-5 5c-.391.391-.391 1.023 0 1.414z"/></svg>