<svg title="MTO Families" title-direction="right" class="sidebar-svg-icon"  viewBox="-64 0 512 512" xmlns="http://www.w3.org/2000/svg"><path d="m15.042969 207.609375h49.144531v17.046875h-16.046875v15.046875h192.566406v-15.046875h-17.050781v-17.046875h49.144531v80.234375h15.042969v-191.5625h-64.1875v-60.28125l-36-36h-86.464844l-37.003906 36v60.28125h-64.1875v368.078125h168.492188v-15.042969h-153.449219zm81.238281 17.046875h-17.050781v-54.050781l17.050781-17.050781zm80.234375 0h-65.191406v-17.046875h65.191406zm0-32.09375h-65.191406v-17.046875h65.191406zm0-32.09375h-65.191406v-17.046875h65.191406zm32.09375 64.1875h-17.046875v-71.101562l17.046875 17.050781zm-101.1875-209.613281h74.003906l17.046875 17.050781h-108.101562zm101.1875 32.09375v49.144531h-17.046875v-49.144531zm-32.09375 0v49.144531h-65.191406v-49.144531zm-97.285156 0h17.050781v49.144531h-17.050781zm-64.1875 64.1875h257.757812v81.238281h-49.144531v-28.1875l-36-36h-86.464844l-37.003906 36v28.1875h-49.144531zm0 0"/><path d="m104.304688 320.941406h16.046874v15.042969h-16.046874zm0 0"/><path d="m136.398438 320.941406h16.046874v15.042969h-16.046874zm0 0"/><path d="m168.492188 320.941406h16.046874v15.042969h-16.046874zm0 0"/><path d="m280.824219 304.390625c-57.238281 0-103.804688 46.566406-103.804688 103.804687 0 57.238282 46.566407 103.804688 103.804688 103.804688 57.234375 0 103.800781-46.566406 103.800781-103.804688 0-57.238281-46.566406-103.804687-103.800781-103.804687zm-34.738281 22.628906c-7.425782 10.917969-13.265626 25.011719-16.867188 42.0625h-27.808594c9.40625-19.054687 25.273438-33.777343 44.675782-42.0625zm-54.023438 81.679688c0-8.523438 1.210938-17.554688 3.460938-24.574219h31.148437c-.988281 7.019531-1.511719 16.078125-1.511719 24.574219 0 8.492187.523438 16.546875 1.511719 24.570312h-31.148437c-2.25-8.023437-3.460938-16.050781-3.460938-24.570312zm9.347656 39.613281h27.808594c3.601562 16.046875 9.441406 31.144531 16.867188 42.0625-19.402344-8.285156-35.269532-24.007812-44.675782-42.0625zm71.390625 46.921875c-7.023437-3.242187-13.875-10.730469-19.542969-22.070313-3.695312-7.398437-6.421874-15.824218-8.621093-24.851562h28.164062zm0-61.964844h-30.945312c-1.082031-8.023437-1.652344-16.132812-1.652344-24.570312 0-8.441407.570313-17.554688 1.652344-24.574219h30.945312zm0-64.1875h-28.164062c2.199219-10.03125 4.925781-17.957031 8.621093-25.351562 5.671876-11.339844 12.519532-19.328125 19.542969-22.574219zm87.433594 0h-27.804687c-3.605469-17.050781-9.445313-31.144531-16.871094-42.0625 19.402344 8.285157 35.269531 23.007813 44.675781 42.0625zm-72.390625-47.925781c8.023438 3.246094 14.371094 11.234375 20.042969 22.574219 3.695312 7.394531 6.925781 15.320312 9.121093 25.351562h-29.164062zm0 62.96875h31.949219c1.078125 7.019531 1.648437 16.132812 1.648437 24.574219 0 8.4375-.570312 16.546875-1.648437 24.570312h-31.949219zm0 111.109375v-46.921875h29.164062c-2.195312 9.027344-5.425781 17.453125-9.121093 24.851562-5.671875 11.339844-12.019531 18.828126-20.042969 22.070313zm27.714844-4.859375c7.425781-10.917969 13.265625-26.015625 16.871094-42.0625h27.804687c-9.40625 18.054688-25.273437 33.777344-44.675781 42.0625zm19.417968-57.105469c.984376-8.023437 1.507813-16.078125 1.507813-24.570312 0-8.496094-.523437-17.554688-1.507813-24.574219h31.144532c2.253906 7.019531 3.460937 16.050781 3.460937 24.574219 0 8.519531-1.210937 16.546875-3.460937 24.570312zm0 0"/></svg>