<svg class="sidebar-svg-icon" height="512pt" viewBox="0 0 512 512" width="512pt" xmlns="http://www.w3.org/2000/svg"><path d="m484.261719 215.410156c-6-4.933594-15.070313-12.390625-16.105469-16.261718-1.160156-4.347657 2.917969-15.28125 5.894531-23.261719 5.765625-15.472657 12.304688-33.007813 3.671875-47.925781-8.738281-15.101563-27.355468-18.203126-43.777344-20.9375-7.824218-1.304688-19.652343-3.273438-22.671874-6.296876-3.023438-3.023437-4.992188-14.847656-6.296876-22.671874-2.734374-16.421876-5.835937-35.039063-20.9375-43.777344-14.917968-8.632813-32.453124-2.09375-47.921874 3.671875-7.984376 2.976562-18.921876 7.050781-23.265626 5.894531-3.871093-1.035156-11.328124-10.105469-16.261718-16.105469-10.691406-13.003906-22.808594-27.738281-40.589844-27.738281s-29.898438 14.734375-40.589844 27.738281c-4.933594 6-12.390625 15.070313-16.261718 16.105469-4.347657 1.160156-15.28125-2.917969-23.261719-5.894531-15.472657-5.765625-33.007813-12.304688-47.925781-3.671875-15.101563 8.738281-18.203126 27.355468-20.9375 43.777344-1.304688 7.824218-3.273438 19.652343-6.296876 22.671874-3.023437 3.023438-14.847656 4.992188-22.671874 6.296876-16.421876 2.734374-35.039063 5.835937-43.777344 20.9375-8.632813 14.917968-2.09375 32.453124 3.671875 47.921874 2.976562 7.984376 7.054687 18.917969 5.894531 23.265626-1.035156 3.871093-10.105469 11.328124-16.105469 16.261718-13.003906 10.691406-27.738281 22.808594-27.738281 40.589844s14.734375 29.898438 27.738281 40.589844c6 4.933594 15.070313 12.390625 16.105469 16.261718 1.160156 4.347657-2.917969 15.28125-5.894531 23.261719-5.765625 15.472657-12.304688 33.007813-3.671875 47.925781 8.738281 15.101563 27.355468 18.203126 43.777344 20.9375 7.824218 1.304688 19.652343 3.273438 22.671874 6.296876 3.023438 3.023437 4.992188 14.847656 6.296876 22.671874 2.734374 16.421876 5.835937 35.039063 20.9375 43.777344 14.917968 8.628906 32.453124 2.09375 47.921874-3.671875 7.984376-2.976562 18.917969-7.054687 23.265626-5.894531 3.871093 1.035156 11.328124 10.105469 16.261718 16.105469 10.691406 13.003906 22.808594 27.738281 40.589844 27.738281s29.898438-14.734375 40.589844-27.738281c4.933594-6 12.390625-15.070313 16.261718-16.105469 4.347657-1.15625 15.28125 2.917969 23.261719 5.894531 15.472657 5.765625 33.007813 12.304688 47.925781 3.671875 15.101563-8.738281 18.203126-27.355468 20.9375-43.777344 1.304688-7.824218 3.273438-19.652343 6.296876-22.671874 3.023437-3.023438 14.847656-4.992188 22.671874-6.296876 16.421876-2.734374 35.039063-5.835937 43.777344-20.9375 8.632813-14.917968 2.09375-32.453124-3.671875-47.921874-2.976562-7.984376-7.054687-18.917969-5.894531-23.265626 1.035156-3.871093 10.105469-11.328124 16.105469-16.261718 13.003906-10.691406 27.738281-22.808594 27.738281-40.589844s-14.734375-29.898438-27.738281-40.589844zm-289.183594-62.792968c23.410156 0 42.460937 19.046874 42.460937 42.460937 0 23.410156-19.050781 42.460937-42.460937 42.460937-23.414063 0-42.460937-19.050781-42.460937-42.460937 0-23.414063 19.046874-42.460937 42.460937-42.460937zm-6.960937 192.152343c-2.882813 2.882813-6.664063 4.324219-10.441407 4.324219-3.78125 0-7.5625-1.441406-10.445312-4.324219-5.765625-5.769531-5.765625-15.121093 0-20.886719l156.652343-156.652343c5.765626-5.765625 15.121094-5.765625 20.886719 0 5.769531 5.769531 5.769531 15.121093 0 20.886719zm128.804687 14.613281c-23.410156 0-42.460937-19.046874-42.460937-42.460937 0-23.410156 19.050781-42.460937 42.460937-42.460937 23.414063 0 42.460937 19.050781 42.460937 42.460937 0 23.414063-19.046874 42.460937-42.460937 42.460937zm0 0"/></svg>