<svg title="Sales Tax" title-direction="right" xmlns="http://www.w3.org/2000/svg" class="sidebar-svg-icon" id="Layer_1" version="1.1" width="512pt" x="0px" y="0px" viewBox="0 0 512 512" style="enable-background:new 0 0 512 512;">
<g id="surface1">
<path d="M 0 0 L 0 512 L 380 512 L 380 0 Z M 146.605469 81.390625 C 157.652344 81.390625 166.605469 90.34375 166.605469 101.390625 C 166.605469 112.4375 157.652344 121.390625 146.605469 121.390625 C 135.558594 121.390625 126.605469 112.4375 126.605469 101.390625 C 126.605469 90.34375 135.5625 81.390625 146.605469 81.390625 Z M 232.785156 80.78125 L 254 101.996094 L 147.214844 208.78125 L 126 187.570312 Z M 253.394531 188.175781 C 253.394531 199.222656 244.441406 208.175781 233.394531 208.175781 C 222.347656 208.175781 213.394531 199.222656 213.394531 188.175781 C 213.394531 177.132812 222.347656 168.175781 233.394531 168.175781 C 244.4375 168.175781 253.394531 177.132812 253.394531 188.175781 Z M 296.242188 437.699219 L 83.757812 437.699219 L 83.757812 407.699219 L 296.242188 407.699219 Z M 296.242188 363.632812 L 83.757812 363.632812 L 83.757812 333.632812 L 296.242188 333.632812 Z M 296.242188 289.566406 L 83.757812 289.566406 L 83.757812 259.566406 L 296.242188 259.566406 Z M 296.242188 289.566406 " style=" stroke:none;fill-rule:nonzero;fill-opacity:1;" />
</g>
</svg>