<?xml version="1.0"?>
<svg  title="Templates" title-direction="right" xmlns="http://www.w3.org/2000/svg" version="1.1" viewBox="0 0 512 512" class="sidebar-svg-icon"><g><g id="surface1">
<path d="M 387.859375 287.730469 L 387.859375 446.011719 C 387.859375 448.328125 386.53125 450.429688 384.441406 451.429688 L 356.960938 464.53125 L 258.578125 511.410156 C 257.761719 511.800781 256.878906 512 256 512 C 255.121094 512 254.238281 511.800781 253.421875 511.410156 L 127.558594 451.429688 C 125.46875 450.429688 124.140625 448.328125 124.140625 446.011719 L 124.140625 287.730469 C 124.140625 286.53125 124.5 285.378906 125.140625 284.421875 C 125.71875 283.519531 126.558594 282.789062 127.558594 282.308594 L 253.421875 222.328125 C 254.238281 221.941406 255.121094 221.738281 256 221.738281 C 256.878906 221.738281 257.761719 221.941406 258.578125 222.328125 L 384.441406 282.308594 C 385.441406 282.789062 386.28125 283.519531 386.859375 284.421875 C 387.5 285.378906 387.859375 286.53125 387.859375 287.730469 Z M 387.859375 287.730469 " data-original="#685C79" class="" data-old_color="#FDFDFD"/>
<path d="M 387.859375 287.730469 L 387.859375 446.011719 C 387.859375 448.328125 386.53125 450.429688 384.441406 451.429688 L 356.960938 464.53125 L 258.578125 511.410156 C 257.761719 511.800781 256.878906 512 256 512 L 256 221.738281 C 256.878906 221.738281 257.761719 221.941406 258.578125 222.328125 L 384.441406 282.308594 C 385.441406 282.789062 386.28125 283.519531 386.859375 284.421875 C 387.5 285.378906 387.859375 286.53125 387.859375 287.730469 Z M 387.859375 287.730469 " data-original="#594F69" class="" data-old_color="#E9E9E9"/>
<path d="M 287.9375 33.707031 L 198.378906 33.707031 C 194.238281 33.707031 190.878906 37.0625 190.878906 41.207031 C 190.878906 45.351562 194.238281 48.707031 198.378906 48.707031 L 280.4375 48.707031 L 280.4375 407 C 280.4375 411.144531 283.792969 414.5 287.9375 414.5 C 292.078125 414.5 295.4375 411.144531 295.4375 407 L 295.4375 41.207031 C 295.4375 37.0625 292.078125 33.707031 287.9375 33.707031 Z M 287.9375 33.707031 " data-original="#50475E" class="" data-old_color="#F7F7F7"/>
<path d="M 194.449219 190.808594 L 68.332031 190.808594 C 64.191406 190.808594 60.832031 194.167969 60.832031 198.308594 C 60.832031 202.453125 64.191406 205.808594 68.332031 205.808594 L 186.949219 205.808594 L 186.949219 392.25 C 186.949219 396.394531 190.308594 399.75 194.449219 399.75 C 198.59375 399.75 201.949219 396.394531 201.949219 392.25 L 201.949219 198.308594 C 201.949219 194.167969 198.59375 190.808594 194.449219 190.808594 Z M 194.449219 190.808594 " data-original="#50475E" class="" data-old_color="#F7F7F7"/>
<path d="M 460.667969 126.9375 L 348.203125 126.9375 C 344.0625 126.9375 340.703125 130.296875 340.703125 134.4375 L 340.703125 371.75 C 340.703125 375.894531 344.0625 379.25 348.203125 379.25 C 352.34375 379.25 355.703125 375.894531 355.703125 371.75 L 355.703125 141.9375 L 460.667969 141.9375 C 464.808594 141.9375 468.167969 138.582031 468.167969 134.4375 C 468.167969 130.296875 464.808594 126.9375 460.667969 126.9375 Z M 460.667969 126.9375 " data-original="#50475E" class="" data-old_color="#F7F7F7"/>
<path d="M 209.832031 82.414062 L 135.417969 82.414062 C 133.210938 82.414062 131.417969 80.621094 131.417969 78.414062 L 131.417969 51.507812 L 213.832031 51.507812 L 213.832031 78.414062 C 213.832031 80.625 212.042969 82.414062 209.832031 82.414062 Z M 209.832031 82.414062 " data-original="#FF2C5C" class="" data-old_color="#F8F8F8"/>
<path d="M 209.832031 82.414062 L 135.417969 82.414062 C 133.210938 82.414062 131.417969 80.621094 131.417969 78.414062 L 131.417969 51.507812 L 213.832031 51.507812 L 213.832031 78.414062 C 213.832031 80.625 212.042969 82.414062 209.832031 82.414062 Z M 209.832031 82.414062 " data-original="#FF2C5C" class="" data-old_color="#F8F8F8"/>
<path d="M 209.832031 82.414062 L 182.929688 82.414062 L 182.929688 51.507812 L 213.832031 51.507812 L 213.832031 78.414062 C 213.832031 80.625 212.042969 82.414062 209.832031 82.414062 Z M 209.832031 82.414062 " data-original="#E62753" class="" data-old_color="#E62753"/>
<path d="M 213.832031 51.507812 L 131.417969 51.507812 L 131.417969 4 C 131.417969 1.789062 133.210938 0 135.417969 0 L 209.832031 0 C 212.042969 0 213.832031 1.789062 213.832031 4 Z M 213.832031 51.507812 " data-original="#FFD659" class="active-path" data-old_color="#F2F2F1"/>
<path d="M 213.832031 51.507812 L 182.929688 51.507812 L 182.929688 0 L 209.832031 0 C 212.042969 0 213.832031 1.789062 213.832031 4 Z M 213.832031 51.507812 " data-original="#FFBD54" class="" data-old_color="#F4F2EF"/>
<path d="M 508 175.644531 L 433.585938 175.644531 C 431.378906 175.644531 429.585938 173.855469 429.585938 171.644531 L 429.585938 144.738281 L 512 144.738281 L 512 171.644531 C 512 173.855469 510.210938 175.644531 508 175.644531 Z M 508 175.644531 " data-original="#FF2C5C" class="" data-old_color="#F8F8F8"/>
<path d="M 508 175.644531 L 433.585938 175.644531 C 431.378906 175.644531 429.585938 173.855469 429.585938 171.644531 L 429.585938 144.738281 L 512 144.738281 L 512 171.644531 C 512 173.855469 510.210938 175.644531 508 175.644531 Z M 508 175.644531 " data-original="#FF2C5C" class="" data-old_color="#F8F8F8"/>
<path d="M 508 175.644531 L 481.09375 175.644531 L 481.09375 144.738281 L 512 144.738281 L 512 171.644531 C 512 173.855469 510.210938 175.644531 508 175.644531 Z M 508 175.644531 " data-original="#E62753" class="" data-old_color="#E62753"/>
<path d="M 512 144.738281 L 429.585938 144.738281 L 429.585938 97.230469 C 429.585938 95.023438 431.378906 93.230469 433.585938 93.230469 L 508 93.230469 C 510.210938 93.230469 512 95.023438 512 97.230469 Z M 512 144.738281 " data-original="#FFD659" class="active-path" data-old_color="#F2F2F1"/>
<path d="M 512 144.738281 L 481.09375 144.738281 L 481.09375 93.230469 L 508 93.230469 C 510.210938 93.230469 512 95.023438 512 97.230469 Z M 512 144.738281 " data-original="#FFBD54" class="" data-old_color="#F4F2EF"/>
<path d="M 78.414062 239.515625 L 4 239.515625 C 1.789062 239.515625 0 237.726562 0 235.515625 L 0 208.613281 L 82.414062 208.613281 L 82.414062 235.515625 C 82.414062 237.726562 80.625 239.515625 78.414062 239.515625 Z M 78.414062 239.515625 " data-original="#FF2C5C" class="" data-old_color="#F8F8F8"/>
<path d="M 78.414062 239.515625 L 4 239.515625 C 1.789062 239.515625 0 237.726562 0 235.515625 L 0 208.613281 L 82.414062 208.613281 L 82.414062 235.515625 C 82.414062 237.726562 80.625 239.515625 78.414062 239.515625 Z M 78.414062 239.515625 " data-original="#FF2C5C" class="" data-old_color="#F8F8F8"/>
<path d="M 78.414062 239.515625 L 51.507812 239.515625 L 51.507812 208.613281 L 82.414062 208.613281 L 82.414062 235.515625 C 82.414062 237.726562 80.625 239.515625 78.414062 239.515625 Z M 78.414062 239.515625 " data-original="#E62753" class="" data-old_color="#E62753"/>
<path d="M 82.414062 208.613281 L 0 208.613281 L 0 161.101562 C 0 158.894531 1.789062 157.101562 4 157.101562 L 78.414062 157.101562 C 80.621094 157.101562 82.414062 158.894531 82.414062 161.101562 Z M 82.414062 208.613281 " data-original="#FFD659" class="active-path" data-old_color="#F2F2F1"/>
<path d="M 82.414062 208.613281 L 51.507812 208.613281 L 51.507812 157.101562 L 78.414062 157.101562 C 80.621094 157.101562 82.414062 158.894531 82.414062 161.101562 Z M 82.414062 208.613281 " data-original="#FFBD54" class="" data-old_color="#F4F2EF"/>
<path d="M 48.933594 175.355469 L 33.480469 175.355469 C 29.339844 175.355469 25.980469 178.714844 25.980469 182.855469 C 25.980469 187 29.339844 190.355469 33.480469 190.355469 L 48.933594 190.355469 C 53.074219 190.355469 56.433594 187 56.433594 182.855469 C 56.433594 178.714844 53.074219 175.355469 48.933594 175.355469 Z M 48.933594 175.355469 " data-original="#50475E" class="" data-old_color="#F7F7F7"/>
<path d="M 180.351562 18.253906 L 164.898438 18.253906 C 160.757812 18.253906 157.398438 21.613281 157.398438 25.753906 C 157.398438 29.898438 160.757812 33.253906 164.898438 33.253906 L 180.351562 33.253906 C 184.492188 33.253906 187.851562 29.898438 187.851562 25.753906 C 187.851562 21.613281 184.492188 18.253906 180.351562 18.253906 Z M 180.351562 18.253906 " data-original="#50475E" class="" data-old_color="#F7F7F7"/>
<path d="M 478.519531 111.484375 L 463.066406 111.484375 C 458.925781 111.484375 455.566406 114.84375 455.566406 118.984375 C 455.566406 123.128906 458.925781 126.484375 463.066406 126.484375 L 478.519531 126.484375 C 482.660156 126.484375 486.019531 123.128906 486.019531 118.984375 C 486.019531 114.84375 482.660156 111.484375 478.519531 111.484375 Z M 478.519531 111.484375 " data-original="#50475E" class="" data-old_color="#F7F7F7"/>
<path d="M 256 346.78125 L 256 512 C 255.121094 512 254.238281 511.800781 253.421875 511.410156 L 127.558594 451.429688 C 125.46875 450.429688 124.140625 448.328125 124.140625 446.011719 L 124.140625 287.730469 C 124.140625 286.53125 124.5 285.378906 125.140625 284.421875 Z M 256 346.78125 " data-original="#4FB1F5" class="" data-old_color="#4FB1F5"/>
<path d="M 387.859375 287.730469 L 387.859375 446.011719 C 387.859375 448.328125 386.53125 450.429688 384.441406 451.429688 L 356.960938 464.53125 L 258.578125 511.410156 C 257.761719 511.800781 256.878906 512 256 512 L 256 346.78125 L 356.960938 298.671875 L 386.859375 284.421875 C 387.5 285.378906 387.859375 286.53125 387.859375 287.730469 Z M 387.859375 287.730469 " data-original="#FF2C5C" class="" data-old_color="#F8F8F8"/>
<path d="M 387.859375 287.730469 L 387.859375 446.011719 C 387.859375 448.328125 386.53125 450.429688 384.441406 451.429688 L 356.960938 464.53125 L 356.960938 298.671875 L 386.859375 284.421875 C 387.5 285.378906 387.859375 286.53125 387.859375 287.730469 Z M 387.859375 287.730469 " data-original="#E62753" class="" data-old_color="#E62753"/>
</g></g> </svg>
