<svg title="Order Help Text" title-direction="right" class="sidebar-svg-icon" viewBox="0 -90 512 512" xmlns="http://www.w3.org/2000/svg"><path d="m472 152v-72c0-22.054688-17.945312-40-40-40h-352c-22.054688 0-40 17.945312-40 40v172c0 22.054688 17.945312 40 40 40h352c22.054688 0 40-17.945312 40-40 0-11.046875 8.953125-20 20-20s20 8.953125 20 20c0 44.113281-35.886719 80-80 80h-352c-44.113281 0-80-35.886719-80-80v-172c0-44.113281 35.886719-80 80-80h352c44.113281 0 80 35.886719 80 80v72c0 11.046875-8.953125 20-20 20s-20-8.953125-20-20zm-307 100c11.046875 0 20-8.953125 20-20v-111h27c0 11.046875 8.953125 20 20 20s20-8.953125 20-20v-20c0-11.046875-8.953125-20-20-20h-132c-11.046875 0-20 8.953125-20 20v20c0 11.046875 8.953125 20 20 20s20-8.953125 20-20h25v111c0 11.046875 8.953125 20 20 20zm87 0c11.046875 0 20-8.953125 20-20s-8.953125-20-20-20-20 8.953125-20 20 8.953125 20 20 20zm60-20c0 11.046875 8.953125 20 20 20s20-8.953125 20-20-8.953125-20-20-20-20 8.953125-20 20zm80 0c0 11.046875 8.953125 20 20 20s20-8.953125 20-20-8.953125-20-20-20-20 8.953125-20 20zm0 0"/></svg>