<svg id="Capa_1" class="sidebar-svg-icon" fill="#ababab" enable-background="new 0 0 512 512" viewBox="0 0 512 512" xmlns="http://www.w3.org/2000/svg"><path d="m361 75v29.05c-17.35-7.91-36.34-12.07-55.98-12.07-13.33 0-26.69 2.03-39.47 5.93-7.9-2.42-16.11-4.14-24.55-5.08v-.83h15c8.28 0 15-6.72 15-15s-6.72-15-15-15h-60c-8.28 0-15 6.72-15 15s6.72 15 15 15h15v.83c-67.41 7.48-120 64.8-120 134.17 0 5.04.29 10.05.86 15h-76.86c-8.28 0-15-6.72-15-15v-212c0-8.28 6.72-15 15-15h271c3.98 0 7.79 1.58 10.61 4.39l60 60c2.81 2.82 4.39 6.63 4.39 10.61z"/><path d="m241 123.08v73.92c0 8.28-6.72 15-15 15s-15-6.72-15-15v-73.92c-50.82 7.29-90 51.11-90 103.92 0 40.51 23.72 77.24 60 94.49v19.3l-25.61 25.6c-5.85 5.86-5.85 15.36 0 21.22l19.4 19.39-19.4 19.39c-5.85 5.86-5.85 15.36 0 21.22l60 60c5.824 5.824 15.337 5.883 21.22 0l30-30c2.81-2.82 4.39-6.63 4.39-10.61v-145.51c36.28-17.25 60-53.98 60-94.49 0-52.81-39.18-96.63-90-103.92z"/><path d="m512 375.49v42.43c0 8.28-6.72 15-15 15h-85.85c-8.29 0-15-6.72-15-15v-27.43h-27.43c-8.28 0-15-6.71-15-15v-36.21l-13.65-13.65c-9.43 3.33-19.26 5.29-29.15 5.87 31.13-25.28 50.08-63.68 50.08-104.5 0-42.27-19.53-80.07-50.04-104.85 69.945 3.943 116.206 73.798 92.77 139.8l103.83 102.89c2.84 2.81 4.44 6.65 4.44 10.65z"/></svg>