<svg class="sidebar-svg-icon" viewBox="-73 1 511 511.99875" xmlns="http://www.w3.org/2000/svg">
    <path d="m7.5625 252.5625 130.769531-226.5c20.0625-34.75 70.21875-34.75 90.28125 0l130.769531 226.5c20.066407 34.75-5.015624 78.1875-45.140624 78.1875h-261.539063c-40.125 0-65.203125-43.4375-45.140625-78.1875zm0 0"
          fill="#f7ef87"/>
    <path d="m249.65625 330.75c-101.207031-53.304688-127.457031-245.945312-87.847656-326.085938-9.367188 4.238282-17.679688 11.359376-23.476563 21.398438l-130.769531 226.5c-20.066406 34.75 5.015625 78.1875 45.140625 78.1875zm0 0"
          fill="#efd176"/>
    <path d="m314.613281 297.019531h-262.28125c-6.574219 0-12.457031-3.398437-15.746093-9.089843-3.285157-5.691407-3.285157-12.488282 0-18.183594l131.140624-227.140625c3.285157-5.691407 9.175782-9.089844 15.746094-9.089844 6.570313 0 12.457032 3.398437 15.746094 9.089844l131.140625 227.140625c3.285156 5.695312 3.285156 12.492187 0 18.183594-3.289063 5.691406-9.171875 9.089843-15.746094 9.089843zm-131.140625-248.503906c-.683594 0-1.957031.207031-2.753906 1.59375l-131.140625 227.140625c-.800781 1.382812-.34375 2.585938 0 3.179688s1.15625 1.589843 2.753906 1.589843h262.28125c1.597657 0 2.410157-.996093 2.753907-1.589843s.800781-1.796876 0-3.179688l-131.140626-227.144531c-.796874-1.382813-2.066406-1.589844-2.753906-1.589844zm-9.25-2.160156h.011719zm0 0"
          fill="#4e5660"/>
    <path d="m225.445312 330.75h-83.945312v157.328125c0 13.210937 10.707031 23.921875 23.917969 23.921875h36.105469c13.210937 0 23.921874-10.710938 23.921874-23.921875zm0 0"
          fill="#e1b89a"/>
    <path d="m200.304688 248.128906c0 9.292969-7.535157 16.832032-16.832032 16.832032s-16.832031-7.539063-16.832031-16.832032c0-9.296875 7.535156-16.832031 16.832031-16.832031s16.832032 7.535156 16.832032 16.832031zm0 0"
          fill="#4e5660"/>
    <path d="m183.472656 264.960938c.679688 0 1.347656-.054688 2.003906-.132813-5.183593-9.019531-9.878906-18.53125-14.074218-28.417969-2.941406 3.03125-4.761719 7.160156-4.761719 11.71875 0 9.292969 7.535156 16.832032 16.832031 16.832032zm0 0"
          fill="#383c43"/>
    <path d="m190.421875 116.171875h-13.898437c-8.164063 0-14.53125 7.078125-13.667969 15.199219l6.949219 65.402344c.742187 6.988281 6.640624 12.292968 13.667968 12.292968s12.925782-5.304687 13.667969-12.292968l6.949219-65.402344c.863281-8.121094-5.503906-15.199219-13.667969-15.199219zm0 0"
          fill="#4e5660"/>
    <g fill="#d2996f">
        <path d="m141.5 330.75h83.945312v47.957031h-83.945312zm0 0"/>
        <path d="m141.5 395.144531v16.734375c10.816406 6.347656 21.015625 17.636719 23.28125 37.722656 1.089844 9.664063.222656 22.429688-10.101562 28.335938-3.671876 2.101562-8.257813 3.121094-13.179688 3.183594v6.957031c0 2.820313.492188 5.523437 1.386719 8.035156 6.996093-.269531 13.640625-1.949219 19.242187-5.15625 18.316406-10.480469 18.863282-31.460937 17.558594-43.035156-3.523438-31.25-22.390625-45.925781-38.1875-52.777344zm0 0"/>
        <path d="m225.445312 431.136719c-2.839843-.300781-5.648437-1.175781-8.273437-2.617188-7.476563-4.105469-12.523437-12.316406-14.210937-23.117187-2.875-18.394532 3.109374-30.933594 22.484374-44.898438v-18.066406c-22.664062 14.300781-42.460937 32.277344-37.304687 65.28125 2.421875 15.496094 10.167969 27.550781 21.8125 33.949219 4.882813 2.683593 10.164063 4.199219 15.492187 4.53125zm0 0"/>
    </g>
    <path d="m259.203125 263.5c-1.917969 0-3.835937-.730469-5.300781-2.195312-2.929688-2.929688-2.929688-7.679688 0-10.609376l6.703125-6.703124c2.929687-2.925782 7.675781-2.925782 10.605469 0 2.929687 2.929687 2.929687 7.679687 0 10.609374l-6.703126 6.703126c-1.464843 1.464843-3.382812 2.195312-5.304687 2.195312zm0 0"
          fill="#efd176"/>
    <path d="m117.71875 221.578125c-1.921875 0-3.839844-.734375-5.304688-2.199219-2.929687-2.929687-2.929687-7.675781 0-10.605468l11.679688-11.679688c2.929688-2.929688 7.679688-2.929688 10.609375 0 2.925781 2.929688 2.925781 7.675781 0 10.605469l-11.683594 11.679687c-1.464843 1.464844-3.382812 2.199219-5.300781 2.199219zm0 0"
          fill="#f7ef87"/>
</svg>
