<?xml version="1.0" standalone="no"?>
<!DOCTYPE svg PUBLIC "-//W3C//DTD SVG 20010904//EN"
 "http://www.w3.org/TR/2001/REC-SVG-20010904/DTD/svg10.dtd">
<svg version="1.0" xmlns="http://www.w3.org/2000/svg"
 width="18px" height="18px" viewBox="0 0 200.000000 200.000000"
 preserveAspectRatio="xMidYMid meet">
<metadata>
Created by potrace 1.15, written by Peter Selinger 2001-2017
</metadata>
<g transform="translate(0.000000,200.000000) scale(0.100000,-0.100000)"
fill="#009688 " stroke="none">
<path d="M1263 1806 c-288 -73 -447 -375 -348 -657 52 -147 184 -263 346 -305
49 -13 88 -15 167 -10 100 6 104 5 162 -24 100 -51 115 -42 123 71 5 72 8 79
55 141 69 91 93 160 100 279 4 80 1 109 -16 165 -48 156 -158 272 -308 325
-75 26 -211 33 -281 15z m431 -252 c14 -13 16 -48 16 -228 0 -151 -3 -215 -12
-224 -17 -17 -619 -17 -636 0 -9 9 -12 73 -12 224 0 180 2 215 16 228 13 14
56 16 314 16 258 0 301 -2 314 -16z"/>
<path d="M1230 1485 c0 -2 34 -27 75 -55 l75 -51 75 51 c41 28 75 53 75 55 0
3 -67 5 -150 5 -82 0 -150 -2 -150 -5z"/>
<path d="M1120 1321 l0 -151 255 0 255 0 0 145 c0 80 -2 145 -5 145 -3 0 -57
-36 -119 -80 -63 -44 -119 -80 -125 -80 -5 0 -54 31 -108 68 -54 38 -110 77
-125 86 l-28 18 0 -151z"/>
<path d="M364 1659 c-123 -64 -197 -138 -224 -223 -20 -61 -7 -215 25 -316
122 -385 476 -831 728 -920 106 -38 178 -25 293 52 77 51 114 95 114 134 0 24
-199 271 -234 291 -40 23 -71 15 -137 -37 -38 -29 -74 -50 -90 -50 -34 0 -74
43 -150 165 -34 55 -88 138 -119 185 -76 113 -100 162 -100 203 0 40 14 54 97
96 68 34 93 61 93 103 0 37 -144 324 -169 338 -33 17 -66 12 -127 -21z"/>
</g>
</svg>
