<svg xmlns="http://www.w3.org/2000/svg" xmlns:xlink="http://www.w3.org/1999/xlink" width="141" height="151" viewBox="0 0 141 151">
  <defs>
    <clipPath id="clip-Artboard_1">
      <rect width="141" height="151"/>
    </clipPath>
  </defs>
  <g id="Artboard_1" data-name="Artboard – 1" clip-path="url(#clip-Artboard_1)">
    <g id="Group_7" data-name="Group 7" transform="translate(-889 -212)">
      <path id="Path_1" data-name="Path 1" d="M187.908,138.3H136.273a2.526,2.526,0,0,1-2.185-3.767l25.818-45.157a2.512,2.512,0,0,1,4.371,0l25.818,45.157a2.526,2.526,0,0,1-2.185,3.767Zm0,0" transform="translate(797.587 151.554)" fill="#bddbff"/>
      <path id="Path_2" data-name="Path 2" d="M191.253,440v10.046H136V440Zm0,0" transform="translate(796.051 -89.867)" fill="#bddbff"/>
      <path id="Path_3" data-name="Path 3" d="M160,376h40.184v20.092H160Zm0,0" transform="translate(779.586 -45.959)" fill="#bddbff"/>
      <path id="Path_4" data-name="Path 4" d="M143.621,312v10.046a10.047,10.047,0,0,1-10.046,10.046H18.046A10.047,10.047,0,0,1,8,322.046V312Zm0,0" transform="translate(883.867 -2.051)" fill="#bddbff"/>
      <path id="Path_5" data-name="Path 5" d="M173.391,13.023V23.069H88V13.023A5.039,5.039,0,0,1,93.023,8h75.345A5.039,5.039,0,0,1,173.391,13.023Zm0,0" transform="translate(828.982 206.512)" fill="#bddbff"/>
      <path id="Path_6" data-name="Path 6" d="M128.087,25.115H115.529V7.535A7.535,7.535,0,0,0,107.995,0H32.65a7.535,7.535,0,0,0-7.535,7.535V25.115H12.558A12.572,12.572,0,0,0,0,37.673v70.322a12.572,12.572,0,0,0,12.558,12.558H47.719v15.069H42.7a2.512,2.512,0,0,0-2.512,2.512v7.535H35.161v5.023h70.322v-5.023H100.46v-7.535a2.512,2.512,0,0,0-2.512-2.512H92.926V120.552h35.161a12.572,12.572,0,0,0,12.558-12.558V37.673A12.572,12.572,0,0,0,128.087,25.115ZM30.138,20.092h80.368V82.88a2.512,2.512,0,0,1-2.511,2.512H32.65a2.512,2.512,0,0,1-2.512-2.512ZM32.65,5.023h75.345a2.512,2.512,0,0,1,2.511,2.512v7.535H30.138V7.535A2.512,2.512,0,0,1,32.65,5.023ZM12.558,30.138H25.115V82.88a7.535,7.535,0,0,0,7.535,7.535h75.345a7.535,7.535,0,0,0,7.535-7.535V30.138h12.558a7.535,7.535,0,0,1,7.535,7.535V95.437H5.023V37.673A7.535,7.535,0,0,1,12.558,30.138Zm82.88,115.529H45.207v-5.023h50.23ZM87.9,135.621H52.742V120.552H87.9Zm40.184-20.092H12.558a7.535,7.535,0,0,1-7.535-7.535V100.46h130.6v7.535A7.535,7.535,0,0,1,128.087,115.529Zm0,0" transform="translate(889.356 212)" fill="#1d2747"/>
      <path id="Path_7" data-name="Path 7" d="M384,336h10.046v5.023H384Zm0,0" transform="translate(625.908 -18.517)" fill="#3d9ae2"/>
      <path id="Path_8" data-name="Path 8" d="M109.023,26.512A2.512,2.512,0,1,1,106.512,24,2.512,2.512,0,0,1,109.023,26.512Zm0,0" transform="translate(818.005 195.535)" fill="#3d9ae2"/>
      <path id="Path_9" data-name="Path 9" d="M133.023,26.512A2.512,2.512,0,1,1,130.512,24,2.512,2.512,0,0,1,133.023,26.512Zm0,0" transform="translate(801.54 195.535)" fill="#3d9ae2"/>
      <path id="Path_10" data-name="Path 10" d="M157.023,26.512A2.512,2.512,0,1,1,154.512,24,2.512,2.512,0,0,1,157.023,26.512Zm0,0" transform="translate(785.074 195.535)" fill="#3d9ae2"/>
      <path id="Path_11" data-name="Path 11" d="M213.023,164.092a2.512,2.512,0,0,0,2.451-1.961c.959-4.273,2.572-11.659,2.572-13.108a5.023,5.023,0,1,0-10.046,0c0,1.449,1.613,8.836,2.572,13.108A2.512,2.512,0,0,0,213.023,164.092Zm0,0" transform="translate(746.655 113.207)" fill="#3d9ae2"/>
      <path id="Path_12" data-name="Path 12" d="M221.023,218.512A2.512,2.512,0,1,1,218.512,216,2.512,2.512,0,0,1,221.023,218.512Zm0,0" transform="translate(741.166 63.811)" fill="#3d9ae2"/>
      <path id="Path_13" data-name="Path 13" d="M130.811,135.341h51.621a5.023,5.023,0,0,0,4.361-7.515L160.981,82.657a5.022,5.022,0,0,0-8.719,0L126.45,127.827a5.023,5.023,0,0,0,4.361,7.515Zm25.81-50.19,25.824,45.167H130.811Zm0,0" transform="translate(803.057 157.027)" fill="#1d2747"/>
    </g>
  </g>
</svg>
