<?xml version="1.0"?>
<svg xmlns="http://www.w3.org/2000/svg" xmlns:xlink="http://www.w3.org/1999/xlink" viewBox="0 0 64 64" width="512" height="512"><defs><linearGradient id="New_Gradient_Swatch_copy" x1="32.743" y1="62.538" x2="31.221" y2="-0.005" gradientUnits="userSpaceOnUse"><stop offset="0" stop-color="#e93e3a"/><stop offset="0.36" stop-color="#ed683c"/><stop offset="0.716" stop-color="#f3903f"/><stop offset="1" stop-color="#fdc70c"/></linearGradient><linearGradient id="New_Gradient_Swatch_copy-2" x1="33.059" y1="62.531" x2="31.538" y2="-0.013" xlink:href="#New_Gradient_Swatch_copy"/><linearGradient id="New_Gradient_Swatch_copy-3" x1="23.779" y1="62.756" x2="22.258" y2="0.213" gradientTransform="translate(22.808 -9.447) rotate(45)" xlink:href="#New_Gradient_Swatch_copy"/><linearGradient id="New_Gradient_Swatch_copy-4" x1="23.332" y1="62.767" x2="21.811" y2="0.224" gradientTransform="translate(35.808 -4.062) rotate(45)" xlink:href="#New_Gradient_Swatch_copy"/><linearGradient id="New_Gradient_Swatch_copy-5" x1="32.427" y1="62.546" x2="30.905" y2="0.002" xlink:href="#New_Gradient_Swatch_copy"/><linearGradient id="New_Gradient_Swatch_copy-6" x1="41.706" y1="62.32" x2="40.185" y2="-0.223" gradientTransform="translate(41.192 -17.062) rotate(45)" xlink:href="#New_Gradient_Swatch_copy"/><linearGradient id="New_Gradient_Swatch_copy-7" x1="42.153" y1="62.309" x2="40.632" y2="-0.234" gradientTransform="translate(28.192 -22.447) rotate(45)" xlink:href="#New_Gradient_Swatch_copy"/><linearGradient id="New_Gradient_Swatch_copy-9" x1="19.751" y1="62.854" x2="18.229" y2="0.311" xlink:href="#New_Gradient_Swatch_copy"/><linearGradient id="New_Gradient_Swatch_copy-10" x1="45.735" y1="62.222" x2="44.214" y2="-0.321" xlink:href="#New_Gradient_Swatch_copy"/><linearGradient id="New_Gradient_Swatch_copy-11" x1="32.744" y1="62.592" x2="31.223" y2="0.048" xlink:href="#New_Gradient_Swatch_copy"/></defs><g id="Setting"><path d="M46.942,41.3l-2.364-3.153a13.921,13.921,0,0,0,.657-1.6l3.907-.558A1,1,0,0,0,50,35V29a1,1,0,0,0-.858-.99l-3.907-.558a13.905,13.905,0,0,0-.657-1.6L46.942,22.7a1,1,0,0,0-.092-1.306L42.606,17.15a1,1,0,0,0-1.306-.092l-3.154,2.364a13.905,13.905,0,0,0-1.6-.657l-.558-3.907A1,1,0,0,0,35,14H29a1,1,0,0,0-.99.858l-.558,3.907a13.905,13.905,0,0,0-1.6.657L22.7,17.058a1,1,0,0,0-1.306.092L17.15,21.394a1,1,0,0,0-.092,1.306l2.364,3.154a13.905,13.905,0,0,0-.657,1.6l-3.907.558A1,1,0,0,0,14,29v6a1,1,0,0,0,.858.99l3.907.558a13.921,13.921,0,0,0,.657,1.6L17.058,41.3a1,1,0,0,0,.092,1.306l4.244,4.244a1,1,0,0,0,1.306.092l3.153-2.364a13.921,13.921,0,0,0,1.6.657l.558,3.907A1,1,0,0,0,29,50h6a1,1,0,0,0,.99-.858l.558-3.907a13.921,13.921,0,0,0,1.6-.657L41.3,46.942a1,1,0,0,0,1.306-.092l4.244-4.244A1,1,0,0,0,46.942,41.3Zm-5.136,3.522L38.845,42.6a1,1,0,0,0-1.081-.077,11.9,11.9,0,0,1-2.4.987,1,1,0,0,0-.71.818L34.133,48H29.867l-.523-3.67a1,1,0,0,0-.71-.818,11.9,11.9,0,0,1-2.4-.987,1,1,0,0,0-1.081.077l-2.961,2.22-3.016-3.016,2.22-2.961a1,1,0,0,0,.077-1.081,11.9,11.9,0,0,1-.987-2.4,1,1,0,0,0-.818-.71L16,34.133V29.867l3.67-.523a1,1,0,0,0,.818-.71,11.825,11.825,0,0,1,.988-2.4,1,1,0,0,0-.078-1.081l-2.22-2.961,3.016-3.016,2.961,2.22a1,1,0,0,0,1.081.078,11.825,11.825,0,0,1,2.4-.988,1,1,0,0,0,.71-.818L29.867,16h4.266l.523,3.67a1,1,0,0,0,.71.818,11.825,11.825,0,0,1,2.4.988,1,1,0,0,0,1.081-.078l2.961-2.22,3.016,3.016L42.6,25.155a1,1,0,0,0-.078,1.081,11.825,11.825,0,0,1,.988,2.4,1,1,0,0,0,.818.71l3.67.523v4.266l-3.67.523a1,1,0,0,0-.818.71,11.9,11.9,0,0,1-.987,2.4,1,1,0,0,0,.077,1.081l2.22,2.961Z" style="fill:url(#New_Gradient_Swatch_copy)"/><rect x="31" y="18" width="2" height="2" style="fill:url(#New_Gradient_Swatch_copy-2)"/><rect x="21.808" y="21.808" width="2" height="2" transform="translate(-9.447 22.808) rotate(-45)" style="fill:url(#New_Gradient_Swatch_copy-3)"/><rect x="21.808" y="40.192" width="2" height="2" transform="translate(-22.447 28.192) rotate(-45)" style="fill:url(#New_Gradient_Swatch_copy-4)"/><rect x="31" y="44" width="2" height="2" style="fill:url(#New_Gradient_Swatch_copy-5)"/><rect x="40.192" y="40.192" width="2" height="2" transform="translate(-17.062 41.192) rotate(-45)" style="fill:url(#New_Gradient_Swatch_copy-6)"/><rect x="40.192" y="21.808" width="2" height="2" transform="translate(-4.062 35.808) rotate(-45)" style="fill:url(#New_Gradient_Swatch_copy-7)"/><path d="M32,24a8,8,0,1,0,8,8A8.009,8.009,0,0,0,32,24Zm0,14a6,6,0,1,1,6-6A6.006,6.006,0,0,1,32,38Z" style="fill:url(#New_Gradient_Swatch_copy)"/><rect x="18" y="31" width="2" height="2" style="fill:url(#New_Gradient_Swatch_copy-9)"/><rect x="44" y="31" width="2" height="2" style="fill:url(#New_Gradient_Swatch_copy-10)"/><path d="M57,52a4.969,4.969,0,0,0-2.753.833l-3.18-3.181a25.938,25.938,0,0,0,0-35.3l3.18-3.181a5.015,5.015,0,1,0-1.414-1.414l-3.181,3.18a25.938,25.938,0,0,0-35.3,0l-3.181-3.18a5.015,5.015,0,1,0-1.414,1.414l3.18,3.181a25.938,25.938,0,0,0,0,35.3l-3.18,3.181a5.015,5.015,0,1,0,1.414,1.414l3.181-3.18a25.938,25.938,0,0,0,35.3,0l3.181,3.18A5,5,0,1,0,57,52ZM57,4a3,3,0,1,1-3,3A3,3,0,0,1,57,4ZM7,10a3,3,0,1,1,3-3A3,3,0,0,1,7,10ZM7,60a3,3,0,1,1,3-3A3,3,0,0,1,7,60Zm25-4a23.908,23.908,0,0,1-16.239-6.347l1.946-1.946-1.414-1.414-1.946,1.946a23.947,23.947,0,0,1,0-32.478l1.946,1.946,1.414-1.414-1.946-1.946a23.947,23.947,0,0,1,32.478,0l-1.946,1.946,1.414,1.414,1.946-1.946a23.947,23.947,0,0,1,0,32.478l-1.946-1.946-1.414,1.414,1.946,1.946A23.908,23.908,0,0,1,32,56Zm25,4a3,3,0,1,1,3-3A3,3,0,0,1,57,60Z" style="fill:url(#New_Gradient_Swatch_copy-11)"/></g></svg>
