<svg height="479pt" viewBox="-8 0 479 479.62282" width="479pt" xmlns="http://www.w3.org/2000/svg" xmlns:xlink="http://www.w3.org/1999/xlink"><linearGradient id="a"><stop offset="0" stop-color="#fff200"/><stop offset="1" stop-color="#cd118c"/></linearGradient><linearGradient id="b" gradientUnits="userSpaceOnUse" x1="-64.053634" x2="415.946366" xlink:href="#a" y1="465.895914" y2="-46.104086"/><linearGradient id="c" gradientUnits="userSpaceOnUse" x1="129.362366" x2="609.362366" xlink:href="#a" y1="647.215914" y2="135.215914"/><linearGradient id="d" gradientUnits="userSpaceOnUse" x1="-93.109634" x2="386.890366" xlink:href="#a" y1="438.655914" y2="-73.344086"/><linearGradient id="e" gradientUnits="userSpaceOnUse" x1="-93.637634" x2="386.362366" xlink:href="#a" y1="438.151914" y2="-73.848086"/><linearGradient id="f" gradientUnits="userSpaceOnUse" x1="-76.613634" x2="403.386366" xlink:href="#a" y1="454.119914" y2="-57.880086"/><linearGradient id="g" gradientUnits="userSpaceOnUse" x1="-77.141634" x2="402.858366" xlink:href="#a" y1="453.623914" y2="-58.376086"/><linearGradient id="h" gradientUnits="userSpaceOnUse" x1="66.290366" x2="546.290366" xlink:href="#a" y1="588.095914" y2="76.095914"/><linearGradient id="i" gradientUnits="userSpaceOnUse" x1="65.762366" x2="545.762366" xlink:href="#a" y1="587.591914" y2="75.591914"/><linearGradient id="j" gradientUnits="userSpaceOnUse" x1="82.794366" x2="562.794366" xlink:href="#a" y1="603.559914" y2="91.559914"/><linearGradient id="k" gradientUnits="userSpaceOnUse" x1="82.258366" x2="562.258366" xlink:href="#a" y1="603.063914" y2="91.063914"/><path d="m440.347656 151.769531c-10.136718.039063-19.152344 6.445313-22.527344 16h-105.882812c-.980469-10.726562-3.941406-21.175781-8.734375-30.816406l50.085937-30.648437c4.238282 3.507812 9.558594 5.4375 15.058594 5.464843 10.160156 0 19.222656-6.394531 22.621094-15.972656 3.402344-9.574219.402344-20.253906-7.488281-26.660156-7.886719-6.40625-18.957031-7.148438-27.628907-1.855469-8.675781 5.292969-13.074218 15.476562-10.984374 25.421875l-50.03125 30.609375c-14.886719-20.0625-37.613282-32.839844-62.488282-35.136719v-16.40625c-.113281-35.136719-25.574218-65.0625-60.238281-70.800781-34.664063-5.742188-68.40625 14.375-79.84375 47.597656-39.925781 4.65625-73.59375 31.902344-86.472656 69.980469-12.878907 38.078125-2.660157 80.164063 26.242187 108.101563l-1.289062-.617188c-8.582032 18.949219-8.550782 40.679688.085937 59.605469 8.636719 18.921875 25.035157 33.183593 44.96875 39.113281-8.121093 21.785156-1.722656 46.324219 16 61.371094-8.492187 27.011718-.347656 56.492187 20.808594 75.316406 21.160156 18.820312 51.390625 23.476562 77.230469 11.894531 25.835937-11.582031 42.476562-37.246093 42.507812-65.5625v-16c13.253906 0 24-10.746093 24-24v-72h16v-16h-40v-16.410156c20.046875-1.820313 38.855469-10.492187 53.261719-24.550781l28.410156 24.320312c-4.398437 11.050782-.175781 23.667969 9.988281 29.84375 10.167969 6.175782 23.308594 4.113282 31.09375-4.882812 7.785157-8.996094 7.9375-22.296875.359376-31.472656-7.574219-9.171876-20.664063-11.535157-30.96875-5.59375l-28.472657-24.375c9.019531-12.625 14.515625-27.425782 15.917969-42.878907h105.882812c4.085938 11.476563 16.136719 18.058594 28 15.292969 11.867188-2.761719 19.769532-13.988281 18.371094-26.089844-1.402344-12.101562-11.660156-21.226562-23.84375-21.203125zm-72-72c4.417969 0 8 3.582031 8 8s-3.582031 8-8 8c-4.417968 0-8-3.582031-8-8s3.582032-8 8-8zm-72.472656 88h-43.046875l36.679687-22.402343c3.335938 7.066406 5.488282 14.636718 6.367188 22.402343zm-71.527344 16c-4.417968 0-8-3.582031-8-8s3.582032-8 8-8c4.417969 0 8 3.582031 8 8s-3.582031 8-8 8zm16 184c0 4.417969-3.582031 8-8 8h-16c-4.417968 0-8-3.582031-8-8v-72h32zm-64-88v16h16v72c0 13.253907 10.742188 24 24 24v16c-.003906 27.175781-19.519531 50.425781-46.28125 55.140625-26.761718 4.71875-53.050781-10.460937-62.34375-35.996094-9.292968-25.539062 1.089844-54.0625 24.625-67.648437l-8-13.851563c-10.507812 6.121094-19.292968 14.796876-25.539062 25.226563-6.730469-7.328125-10.464844-16.921875-10.460938-26.871094.023438-16.886719 10.621094-31.945312 26.503906-37.671875l-5.386718-15.066406c-10.273438 3.71875-19.226563 10.371094-25.75 19.136719-15.65625-3.554688-29.019532-13.691407-36.65625-27.8125-7.640625-14.121094-8.816406-30.851563-3.222656-45.898438 12.851562 9.167969 27.625 15.285157 43.199218 17.878907l2.640625-15.777344c-42.074219-7.195313-72.917969-43.550782-73.160156-86.234375-.246094-42.683594 30.179687-79.390625 72.167969-87.066407-.191406 2.148438-.328125 4.316407-.328125 6.519532-.015625 9.105468 1.707031 18.132812 5.070312 26.597656l14.871094-5.910156c-8.316406-20.957032-3.261719-44.855469 12.835937-60.644532 16.09375-15.785156 40.089844-20.382812 60.878907-11.660156 20.789062 8.722656 34.320312 29.0625 34.335937 51.609375v16.40625c-45.347656 4.070313-80.09375 42.070313-80.09375 87.601563 0 45.527344 34.746094 83.53125 80.09375 87.597656v16.394531zm48-32c-33.738281.058594-62.992187-23.3125-70.382812-56.230469-7.390625-32.917968 9.070312-66.554687 39.59375-80.917968 30.527344-14.363282 66.933594-5.609375 87.585937 21.066406l-41.75 25.542969c-4.234375-3.503907-9.550781-5.433594-15.046875-5.460938-13.257812 0-24 10.742188-24 24 0 13.253907 10.742188 24 24 24 4.167969-.023437 8.257813-1.148437 11.855469-3.257812l37.183594 31.824219c-13.28125 12.476562-30.816407 19.425781-49.039063 19.433593zm112 16c4.417969 0 8 3.582031 8 8s-3.582031 8-8 8c-4.417968 0-8-3.582031-8-8s3.582032-8 8-8zm-52.496094-47.53125-37.175781-31.832031c.078125-.207031.117188-.429688.199219-.636719h49c-1.289062 11.644531-5.417969 22.792969-12.023438 32.46875zm156.496094-32.46875c-4.417968 0-8-3.582031-8-8s3.582032-8 8-8c4.417969 0 8 3.582031 8 8s-3.582031 8-8 8zm0 0" fill="url(#b)"/><path d="m392.347656 383.769531c0 8.835938-7.164062 16-16 16-8.835937 0-16-7.164062-16-16 0-8.839843 7.164063-16 16-16 8.835938 0 16 7.160157 16 16zm0 0" fill="url(#c)"/><path d="m448.347656 359.769531h-12.671875l-.410156-.984375 8.960937-8.960937c3.121094-3.125 3.121094-8.1875 0-11.3125l-22.625-22.625c-3.125-3.121094-8.1875-3.121094-11.3125 0l-8.957031 8.960937-.984375-.40625v-12.671875c0-4.417969-3.582031-8-8-8h-32c-4.417968 0-8 3.582031-8 8v12.671875l-.984375.40625-8.960937-8.960937c-3.171875-3-8.136719-3-11.3125 0l-22.625 22.625c-3.121094 3.125-3.121094 8.1875 0 11.3125l8.960937 8.960937-.40625.984375h-12.671875c-4.417968 0-8 3.582031-8 8v32c0 4.417969 3.582032 8 8 8h12.671875l.40625.980469-8.960937 8.960938c-3.121094 3.125-3.121094 8.1875 0 11.3125l22.625 22.625c3.125 3.121093 8.1875 3.121093 11.3125 0l8.960937-8.960938.984375.410156v12.671875c0 4.417969 3.582032 8 8 8h32c4.417969 0 8-3.582031 8-8v-12.671875l.984375-.410156 8.957031 8.960938c3.175782 3 8.140626 3 11.3125 0l22.625-22.625c3.121094-3.125 3.121094-8.1875 0-11.3125l-8.960937-8.960938.410156-.980469h12.671875c4.417969 0 8-3.582031 8-8v-32c0-4.417969-3.582031-8-8-8zm-8 32h-10.351562c-3.539063 0-6.65625 2.320313-7.664063 5.710938-.933593 3.15625-2.191406 6.210937-3.753906 9.113281-1.6875 3.113281-1.128906 6.964844 1.375 9.46875l7.304687 7.304688-11.3125 11.3125-7.304687-7.304688c-2.5-2.5-6.351563-3.058594-9.460937-1.375-2.902344 1.558594-5.953126 2.816406-9.113282 3.75-3.390625 1.011719-5.71875 4.128906-5.71875 7.664062v10.355469h-16v-10.355469c-.003906-3.535156-2.328125-6.652343-5.722656-7.664062-3.15625-.933594-6.210938-2.191406-9.109375-3.75-3.113281-1.683594-6.960937-1.125-9.464844 1.375l-7.304687 7.304688-11.3125-11.3125 7.304687-7.304688c2.503907-2.503906 3.066407-6.355469 1.375-9.46875-1.5625-2.902344-2.816406-5.957031-3.75-9.113281-1.011719-3.390625-4.128906-5.710938-7.664062-5.710938h-10.351563v-16h10.351563c3.535156-.003906 6.652343-2.324219 7.664062-5.714843.933594-3.15625 2.1875-6.210938 3.75-9.109376 1.691407-3.113281 1.128907-6.96875-1.375-9.472656l-7.304687-7.304687 11.3125-11.3125 7.304687 7.304687c2.503907 2.5 6.351563 3.0625 9.464844 1.375 2.898437-1.558594 5.953125-2.816406 9.109375-3.75 3.394531-1.007812 5.71875-4.125 5.722656-7.664062v-10.351563h16v10.351563c0 3.539062 2.328125 6.65625 5.71875 7.664062 3.160156.933594 6.210938 2.191406 9.113282 3.75 3.109374 1.6875 6.960937 1.125 9.460937-1.375l7.304687-7.304687 11.3125 11.3125-7.304687 7.304687c-2.503906 2.503906-3.0625 6.359375-1.375 9.472656 1.5625 2.898438 2.820313 5.953126 3.753906 9.109376 1.007813 3.390624 4.125 5.710937 7.664063 5.714843h10.351562zm0 0" fill="url(#c)"/><path d="m280.347656 23.769531h16v16h-16zm0 0" fill="url(#d)"/><path d="m264.347656 39.769531h16v16h-16zm0 0" fill="url(#e)"/><path d="m296.347656 39.769531h16v16h-16zm0 0" fill="url(#f)"/><path d="m280.347656 55.769531h16v16h-16zm0 0" fill="url(#g)"/><path d="m392.347656 223.769531h16v16h-16zm0 0" fill="url(#h)"/><path d="m376.347656 239.769531h16v16h-16zm0 0" fill="url(#i)"/><path d="m408.347656 239.769531h16v16h-16zm0 0" fill="url(#j)"/><path d="m392.347656 255.769531h16v16h-16zm0 0" fill="url(#k)"/></svg>