<?xml version="1.0" standalone="no"?>
<!DOCTYPE svg PUBLIC "-//W3C//DTD SVG 20010904//EN"
 "http://www.w3.org/TR/2001/REC-SVG-20010904/DTD/svg10.dtd">
<svg version="1.0" xmlns="http://www.w3.org/2000/svg" style="width: 175px; height: 175px;" xmlns:svg="http://www.w3.org/2000/svg"  viewBox="0 0 211.000000 239.000000" preserveAspectRatio="xMidYMid meet">
 <metadata>Created by potrace 1.14, written by Peter Selinger 2001-2017</metadata>
 <g>
  <title>Layer 1</title>
  <path stroke-width="5" stroke="#000000" fill="#ffffff" id="svg_2" d="m155,1.2c-1.9,0.7 -5.8,3.5 -8.5,6.3c-7.8,7.7 -9.5,16.6 -5.1,26c4.3,9.1 11.6,13.8 21.7,13.8c11.2,0.1 20.6,-7.7 22.9,-18.9c2.1,-10.1 -3,-20.8 -12.3,-25.6c-4.8,-2.4 -13.8,-3.2 -18.7,-1.6z"/>
  <path stroke-width="5" stroke="#000000" fill="#ffffff" id="svg_3" d="m175.3,49.1c-6.8,2 -11,10.9 -9.9,21.2c0.9,9.1 1.9,9.8 4.4,3c1.1,-3.2 2.4,-6.9 2.7,-8.3c1.6,-6.4 5.5,-10 10.7,-10c3.6,0 8.3,3.4 9.8,7c1.2,2.9 1.1,4.2 -0.3,9.9c-2.6,10 -9,22.3 -15.2,29l-5.5,5.9l0,10.1c0,7.8 -0.6,12 -2.5,18.7c-7.3,25.2 -6.9,52.9 1.1,82.2c4.2,15.6 7,19.6 14.7,20.9c4.1,0.6 10.1,-1.9 12.3,-5.2c2.8,-4.4 2.7,-8.6 -0.5,-19c-5,-16.3 -6.4,-26.8 -5.8,-44.5c0.6,-19.6 1.9,-25.6 6.1,-27.4c8.1,-3.5 11.2,-9.7 12.6,-25c1.3,-13.9 0.2,-26.5 -3.6,-40.6c-4.6,-17.2 -10.5,-25 -20.9,-27.9c-4.6,-1.3 -5.8,-1.3 -10.2,0z"/>
  <path stroke-width="5" stroke="#000000" fill="#ffffff" id="svg_4" d="m180.5,57.9c-3.2,1.3 -5.1,4.2 -6.4,9.5c-4.7,19.1 -18.1,31.1 -36.5,32.5c-7,0.5 -8.9,1.1 -11,3c-3.1,3 -3.4,7.8 -0.7,11.2c3.9,4.9 22.2,3.1 35.3,-3.3c9.2,-4.6 18.5,-14.4 23.7,-24.9c7.7,-15.8 8.3,-24.2 2,-27.4c-3.1,-1.7 -3.6,-1.7 -6.4,-0.6z"/>
  <path stroke-width="5" stroke="#000000" fill="#ffffff" id="svg_5" d="m26.95,83.7c-0.2,0.5 -0.4,7.9 -0.3,16.5l0.1,15.8l-9.2,0l-9.3,0l0,7l0,7l-4,0c-2.5,0 -4,0.5 -4,1.2c0,0.7 2.8,10.8 6.1,22.5l6.2,21.2l4.6,1c2.5,0.6 20.1,4 39.1,7.6c19,3.6 35.8,6.8 37.3,7.1c2.5,0.5 2.8,1 2.5,3.7l-0.3,3.2l-40.7,0.3l-40.8,0.2l0,4.5l0,4.5l45.3,0l45.3,0l6.3,-29.3c11.2,-52.6 12.7,-59.1 13.8,-59.4c0.6,-0.2 0,-1.5 -1.3,-2.8c-1.3,-1.3 -2.4,-3.3 -2.4,-4.5c0,-1.7 -0.6,-2 -4,-2c-3.9,0 -4,0.1 -4,3.4c0,1.8 -0.7,6.6 -1.6,10.5c-1.6,7.1 -1.6,7.1 -5,7.1l-3.3,0l-0.3,-15.3l-0.3,-15.2l-16.7,-0.3l-16.8,-0.2l0,-8l0,-8l-20.9,0c-11.6,0 -21.2,0.3 -21.4,0.7z"/>
  <path stroke-width="5" stroke="#000000" fill="#ffffff" id="svg_6" d="m25.2,213c-7,4.3 -8,14.5 -2.1,20.6c3.8,3.9 8.5,5.1 13.8,3.5c10,-2.9 12.5,-15.6 4.7,-22.9c-3,-2.7 -4.3,-3.2 -8.3,-3.2c-3,0 -6,0.7 -8.1,2z"/>
  <path stroke-width="5" stroke="#000000" fill="#ffffff" id="svg_7" d="m82.4,212.9c-3.5,2.1 -6.4,7.5 -6.4,11.8c0,6 7.2,13.3 13.3,13.3c3.7,0 8.7,-2.2 11.1,-4.9c1.3,-1.5 2.1,-4.1 2.4,-8.1c0.4,-5.9 0.4,-6.1 -3.6,-10c-3.5,-3.6 -4.5,-4 -8.8,-4c-3,0 -6.1,0.7 -8,1.9z"/>
  <line transform="rotate(-0.00000108186281977396 35.30935287475586,84.01093307163853) " id="svg_9" y2="129.92968" x2="101.60938" y1="130.24609" x1="7.95313" stroke-linecap="null" stroke-linejoin="null" stroke-dasharray="null" stroke-width="5" stroke="#000000" fill="none"/>
  <line id="svg_11" y2="129.29687" x2="69.33594" y1="99.23828" x1="69.33594" stroke-linecap="null" stroke-linejoin="null" stroke-dasharray="null" stroke-width="5" stroke="#000000" fill="none"/>
  <line id="svg_12" y2="116.00781" x2="68.70313" y1="116.00781" x1="25.98828" stroke-linecap="null" stroke-linejoin="null" stroke-dasharray="null" stroke-width="5" stroke="#000000" fill="none"/>
 </g>
</svg>