<svg height="25px" viewBox="0 -1 512 512" width="25px" xmlns="http://www.w3.org/2000/svg" fill="#000">
<path d="m230 213.984375v-144.984375l-115-69-115 69v144.984375l115 69zm-30-16.984375-70 42v-75.015625l70-42zm-170-111.015625 85-51 85 51v1.015625l-85 51-85-51zm70 153.015625-70-42v-75.015625l70 42zm0 0"/>
<path d="m397 228-115 69v144.984375l115 69 115-69v-144.984375zm-15 239-70-42v-75.015625l70 42zm100-42-70 42v-75.015625l70-42zm0-110-85 51-85-51v-1.015625l85-51 85 51zm0 0"/>
<path d="m412 183.492188c0 8.285156-6.714844 15-15 15s-15-6.714844-15-15c0-8.285157 6.714844-15 15-15s15 6.714843 15 15zm0 0"/>
<path d="m412 123.492188c0 8.285156-6.714844 15-15 15s-15-6.714844-15-15c0-8.285157 6.714844-15 15-15s15 6.714843 15 15zm0 0"/>
<path d="m352 123.492188c0 8.285156-6.714844 15-15 15s-15-6.714844-15-15c0-8.285157 6.714844-15 15-15s15 6.714843 15 15zm0 0"/>
<path d="m292 123.492188c0 8.285156-6.714844 15-15 15s-15-6.714844-15-15c0-8.285157 6.714844-15 15-15s15 6.714843 15 15zm0 0"/>
<path d="m130 327.492188c0 8.285156-6.714844 15-15 15s-15-6.714844-15-15c0-8.285157 6.714844-15 15-15s15 6.714843 15 15zm0 0"/>
<path d="m130 387.492188c0 8.285156-6.714844 15-15 15s-15-6.714844-15-15c0-8.285157 6.714844-15 15-15s15 6.714843 15 15zm0 0"/>
<path d="m190 387.492188c0 8.285156-6.714844 15-15 15s-15-6.714844-15-15c0-8.285157 6.714844-15 15-15s15 6.714843 15 15zm0 0"/>
<path d="m250 387.492188c0 8.285156-6.714844 15-15 15s-15-6.714844-15-15c0-8.285157 6.714844-15 15-15s15 6.714843 15 15zm0 0"/>
</svg>