<?xml version="1.0" standalone="no"?>
<!DOCTYPE svg PUBLIC "-//W3C//DTD SVG 20010904//EN"
 "http://www.w3.org/TR/2001/REC-SVG-20010904/DTD/svg10.dtd">

<svg style="width: 175px; height: 175px;" xmlns="http://www.w3.org/2000/svg" xmlns:svg="http://www.w3.org/2000/svg" viewBox="0 0 225.000000 225.000000" preserveAspectRatio="xMidYMid meet">
 <metadata>Created by potrace 1.14, written by Peter Selinger 2001-2017</metadata>

 <g>
  <title>Layer 1</title>
  <path stroke-width="5" stroke="#000000" fill="#ffffff" id="svg_2" d="m166.9,18.7c-4.3,0.7 -14.3,4.5 -18.2,6.9c-14.3,9.1 -22.8,24.4 -22.8,41.3c0,14 5.1,26.1 14.9,35.4c16.7,15.9 41.5,18.3 60.7,5.9c25.9,-16.8 29.7,-53.5 7.8,-75.4c-11.1,-11.1 -27.3,-16.5 -42.4,-14.1zm35.3,29.1l4.7,4.7l-19.8,19.8l-19.7,19.7l-12.5,-12.5l-12.4,-12.5l4.9,-5l4.9,-5l7.6,7.5l7.5,7.5l14.5,-14.5c8,-8 14.7,-14.5 15,-14.5c0.3,0 2.7,2.1 5.3,4.8z"/>
  <path stroke-width="5" stroke="#000000" fill="#ffffff" id="svg_3" d="m6,57.25l0,7l15.3,0l15.2,0l24.6,56.2l24.7,56.3l58.6,0.3l58.6,0.2l0,-7l0,-7l-54.1,-0.2l-54.1,-0.3l-24.6,-56.3l-24.6,-56.2l-19.8,0l-19.8,0l0,7z"/>
  <path stroke-width="5" stroke="#000000" fill="#ffffff" id="svg_4" d="m73.65,83.95c0,0.5 6.1,16.3 13.6,35l13.6,34l49.5,-0.2l49.5,-0.3l7.4,-18.5c4.1,-10.1 7.4,-18.7 7.4,-19.1c0,-0.3 -3.3,1.1 -7.4,3.2c-9.4,5 -18,7.1 -28.6,7.2c-10.7,0 -17.4,-1.5 -27.5,-6.3c-12.9,-6.2 -25,-18.6 -30.5,-31.5l-1.9,-4.5l-22.6,0c-14.3,0 -22.5,0.4 -22.5,1z"/>
  <path stroke-width="5" stroke="#000000" fill="#ffffff" id="svg_5" d="m97.95,181.75c-4.6,1.4 -9.4,5.6 -11.7,10.5c-3.1,6.4 -2.5,15.7 1.3,21.2c4,5.8 9.8,8.8 17.2,8.7c6.7,0 10.5,-1.6 15.3,-6.5c4.1,-4.2 5.5,-8.7 5,-15.9c-0.6,-7.8 -4,-12.9 -10.9,-16.4c-5.4,-2.7 -10.8,-3.2 -16.2,-1.6z"/>
  <path stroke-width="5" stroke="#000000" fill="#ffffff" id="svg_6" d="m174.25,182.65c-14,6.5 -16.7,24.7 -5.2,34.8c11.6,10.2 29.7,4.2 33.8,-11c1.2,-4.6 0.5,-9.6 -2.1,-14.7c-5,-9.6 -16.6,-13.7 -26.5,-9.1z"/>
 </g>
</svg>
