<?xml version="1.0" standalone="no"?>
<!DOCTYPE svg PUBLIC "-//W3C//DTD SVG 20010904//EN"
 "http://www.w3.org/TR/2001/REC-SVG-20010904/DTD/svg10.dtd">
<svg xmlns="http://www.w3.org/2000/svg"  style="width: 175px; height: 175px;" viewBox="0 0 225.000000 225.000000" xmlns:svg="http://www.w3.org/2000/svg" preserveAspectRatio="xMidYMid meet">
 <metadata>Created by potrace 1.14, written by Peter Selinger 2001-2017</metadata>
 <g>
  <title>Layer 1</title>
  <path stroke-width="0" fill="black" id="svg_2" d="m95.9,12c-18,3.1 -32.9,18.7 -36,38c-1.5,8.7 0.1,23.8 3.6,34.6c4.9,15.8 15.1,29 26.2,34.2c4.8,2.2 7.2,2.7 13.8,2.7c7.1,-0.1 8.7,-0.4 14.3,-3.4c8.4,-4.6 16.2,-13.1 21.2,-23.4c5.1,-10.7 7,-18.6 7.7,-33.2c0.5,-10.6 0.3,-12.7 -1.6,-18.4c-5.7,-16.7 -18.3,-28 -34.5,-31c-6.6,-1.2 -8,-1.2 -14.7,-0.1zm-12.2,30.7c6.8,2.4 9.3,2.7 19.3,2.7c9.8,0 12.7,-0.4 19.8,-2.8c4.5,-1.5 8.7,-2.4 9.3,-2c2.6,1.6 3.9,7.6 3.9,18.1c0,8.3 0.3,10.4 1.2,9.5c2.1,-2.1 3.8,-1.4 3.8,1.6c0,4.5 -3.9,17.2 -7.1,23.3c-9.9,18.6 -27.3,26.6 -42.5,19.5c-12.4,-5.8 -22.9,-22.5 -25.9,-41.4c-0.7,-4.4 0,-5.1 3.4,-3.2c1.7,0.9 1.8,0.4 1.4,-7.8c-0.6,-9.2 0.7,-16 3.3,-18.7c1.9,-1.9 1,-2 10.1,1.2z"/>
  <path stroke-width="5" stroke="#000000" fill="#ffffff" id="svg_3" d="m58.1,116.6c-9,2.4 -17.1,7.3 -25.2,15.4c-12.2,12.1 -17.5,25.5 -16.7,42.5c0.9,18.1 9,25.8 30,28.5c4.6,0.5 28.1,1 53.3,1l45.1,0l-3.4,-7c-6.4,-12.9 -5.5,-26.4 2.8,-38.8c6.9,-10.4 17.9,-16.3 30.7,-16.6l7.2,-0.1l-2.6,-3.5c-7.1,-9.6 -17.5,-17 -28.9,-20.6c-10,-3.2 -12,-3.1 -12.7,0.3c-1.2,5.8 -27.6,44.3 -28.8,42c-0.4,-0.7 -0.9,-5.8 -1.2,-11.4c-0.6,-9.8 -0.5,-10.2 1.7,-11.6c2.2,-1.5 5.3,-7.3 4.4,-8.2c-0.2,-0.3 -3,0.1 -6.1,0.7c-4.4,0.9 -7,0.9 -11.4,0c-3.1,-0.6 -5.8,-1 -6.1,-0.8c-0.6,0.7 1.8,4.9 4.5,7.7c2.4,2.6 2.5,2.9 1.8,13.8c-0.4,6.1 -1,11.1 -1.4,11.1c-1.3,0 -20.4,-30.3 -23.9,-37.9c-4.1,-9 -4.1,-8.9 -13.1,-6.5z"/>
  <path stroke-width="5" stroke="#000000" fill="#ffffff" id="svg_4" d="m171.35,147.85c-10.4,2 -19.4,9.1 -23.9,18.7c-2.3,4.8 -2.7,7.1 -2.7,14.2c0,10.3 2.8,17.4 9.6,23.9c20.7,19.9 54.8,6.9 56.7,-21.6c1.1,-16.8 -8.9,-30.5 -25.3,-34.8c-6.5,-1.6 -7.9,-1.7 -14.4,-0.4zm10.2,16c3.6,1.8 5.7,5.2 5.7,9.1c0,3 0.4,3.7 2.3,4c2.1,0.3 2.2,0.7 2.2,10.8l0,10.5l-14,0l-14,0l0,-10.5c0,-10.1 0.1,-10.5 2.3,-10.8c1.8,-0.3 2.2,-1 2.2,-4c0.1,-7.3 7.3,-12.2 13.3,-9.1z"/>
 </g>
</svg>
